<?xml version="1.0"?>
<svg xmlns="http://www.w3.org/2000/svg" version="1.2" baseProfile="tiny" width="1000" height="627" viewBox="0 0 1000 627" stroke-linecap="round" stroke-linejoin="round">
<g id="congress" style="fill: #cecece; stroke: #ffffff">
<path d="M 88.7 36 86.1 35 86.2 31 89.5 28.3 90.8 22.1 93.1 25.3 92.8 30.7 88.7 36 Z" id="WA01"/>
<path d="M 84.3 43.4 83.3 45.9 76.9 49.3 66.8 48.8 67.9 45.1 73.8 42.6 79 42.2 83.3 43.1 84.3 43.4 Z" id="WA10"/>
<path d="M 90.8 22.1 89.5 28.3 86.2 31 85.1 30.7 89.5 25.9 88.5 18.1 85.5 13.2 90 11.7 87 5.8 87.5 1 116.9 9.2 117.8 16.9 116.4 20.6 110.3 20.8 110.3 24.8 89.9 19.1 90.8 22.1 Z" id="WA02"/>
<path d="M 66.8 48.8 76.9 49.3 81.9 55.2 87.1 57.3 93.6 57.7 94.4 59.9 90 66.6 85.8 81.9 81 81 72.8 82.7 65.2 77.8 66.4 70.6 63.1 64 56.6 60.2 50 57 52.8 52.7 51.6 45.3 66.8 48.8 Z" id="WA03"/>
<path d="M 116.4 20.6 117.8 16.9 116.9 9.2 148.2 17.3 142.2 41.2 140.1 41.2 134 65.1 125.5 70.3 129.7 83.1 128.7 86.3 126.1 87.3 117.8 85.9 107.1 87.6 100.3 85.3 92.4 85.6 86.9 82.9 85.8 81.9 90 66.6 94.4 59.9 93.6 57.7 93.7 54.7 98.7 51.7 101.3 56.6 107.5 58.3 108.5 62.9 117.1 65.1 119.4 54 116 46.7 119.4 40.7 123 40.8 122.3 33.7 116.4 23.9 116.4 20.6 Z" id="WA04"/>
<path d="M 128.7 86.3 129.7 83.1 125.5 70.3 134 65.1 140.1 41.2 142.2 41.2 148.2 17.3 176.4 24 171.2 46.4 162.8 83.8 162.5 94.4 128.7 86.3 Z" id="WA05"/>
<path d="M 73.8 42.6 67.9 45.1 66.8 48.8 51.6 45.3 53 21.9 50.9 17.2 51.3 10.8 55.3 7.1 61.9 13.9 71.3 18.2 75.6 18.3 82.5 21.8 83.4 31 78.7 41.8 73.8 42.6 Z M 83.3 43.1 79 42.2 81.7 41.1 83.3 43.1 Z" fill-rule="evenodd" id="WA06"/>
<path d="M 86.2 31 86.1 35 83.6 39.5 85.1 30.7 86.2 31 Z" id="WA07"/>
<path d="M 88.7 36 92.8 30.7 93.1 25.3 90.8 22.1 89.9 19.1 110.3 24.8 110.3 20.8 116.4 20.6 116.4 23.9 122.3 33.7 123 40.8 119.4 40.7 116 46.7 119.4 54 117.1 65.1 108.5 62.9 107.5 58.3 101.3 56.6 98.7 51.7 93.7 54.7 93.6 57.7 87.1 57.3 81.9 55.2 76.9 49.3 83.3 45.9 84.3 43.4 88.7 36 Z" id="WA08"/>
<path d="M 86.1 35 88.7 36 84.3 43.4 83.3 43.1 81.7 41.1 83.6 39.5 86.1 35 Z" id="WA09"/>
<path d="M 652 200.7 653.3 199.3 655.7 204 655.5 211.1 643.7 212 634.5 212.7 633.2 212.7 633.5 204.2 650.1 203 652 200.7 Z" id="WI01"/>
<path d="M 633.5 204.2 633.2 212.7 633.1 212.7 609.2 214.1 608.2 197.3 612.4 197.9 611.9 190.6 613.7 186.3 618.7 186 622.1 187.8 620.4 194.3 632.8 193.7 633.5 204.2 Z" id="WI02"/>
<path d="M 618.7 186 613.7 186.3 611.9 190.6 612.4 197.9 608.2 197.3 609.2 214.1 608.4 214.1 605.4 214.2 603.8 211.1 597.9 209.1 595.2 199.6 597.1 196.6 594 190.8 593.2 184.3 589.6 179 581.9 174.5 580.8 171.3 566.7 162.7 565.9 159.2 576.7 158.9 576 150.4 584.4 150.1 584.8 154.4 597.3 155.8 597.8 164.2 595.9 168.5 604.2 168 604.9 178.5 615.4 179.3 612.7 171.7 614.4 167.4 614 161.1 626.7 160.3 627.4 170.8 621 171.2 621.9 185.8 618.7 186 Z" id="WI03"/>
<path d="M 653.3 199.3 652 200.7 649.5 194.6 652.5 194.3 653.3 199.3 Z" id="WI04"/>
<path d="M 652 200.7 650.1 203 633.5 204.2 632.8 193.7 632.6 189.5 642.2 188.8 649.2 186.1 649.5 194.6 652 200.7 Z" id="WI05"/>
<path d="M 632.8 193.7 620.4 194.3 622.1 187.8 618.7 186 621.9 185.8 621 171.2 627.4 170.8 641.5 169.8 642 175.6 648.3 175.6 647.7 169.3 656.1 166.5 653.7 177.5 654.7 182.1 652.5 194.3 649.5 194.6 649.2 186.1 642.2 188.8 632.6 189.5 632.8 193.7 Z" id="WI06"/>
<path d="M 626.7 160.3 614 161.1 614.4 167.4 612.7 171.7 615.4 179.3 604.9 178.5 604.2 168 595.9 168.5 597.8 164.2 597.3 155.8 584.8 154.4 584.4 150.1 576 150.4 576.7 158.9 565.9 159.2 565.4 154 567.5 145.1 563.5 138.6 566 134.4 572.9 129.7 572.4 115.5 576.9 114.4 580.7 114.5 596.9 108 595.6 112.3 603.6 116.4 608.9 121.6 626.4 125.2 631.8 127.7 642 128.6 644.4 132.4 638.3 134.3 638.9 142.6 634.7 142.9 635.8 149.1 630 149.5 626.1 152 626.7 160.3 Z" id="WI07"/>
<path d="M 627.4 170.8 626.7 160.3 626.1 152 630 149.5 635.8 149.1 634.7 142.9 638.9 142.6 638.3 134.3 644.4 132.4 649.5 136.3 648.1 142.2 653.6 148.2 647.8 157.7 651.6 159.3 653.9 154.3 658.9 155.1 656.1 166.5 647.7 169.3 648.3 175.6 642 175.6 641.5 169.8 627.4 170.8 Z" id="WI08"/>
<path d="M 807.9 310.5 795.5 320.7 790.6 322.9 787.6 320.9 784.4 324.6 778.6 323.5 775.5 317.8 769.7 315.7 761 305.2 760.8 298.3 765.7 296.9 767.8 292.9 766.4 288.5 769.5 282.1 774 279.8 779.8 278 788.1 279.7 791.2 277 799.1 284.4 802.5 285.1 808.1 290 811.3 283.4 815.1 283.2 818.5 275.9 824.7 279.6 821.5 288.8 814.5 285.6 813.3 293.8 806.2 309.2 807.9 310.5 Z" id="WV01"/>
<path d="M 824.7 279.6 818.5 275.9 815.1 283.2 811.3 283.4 808.1 290 802.5 285.1 799.1 284.4 791.2 277 788.1 279.7 779.8 278 774 279.8 773.6 277.8 774 276.9 778.2 271.5 782.7 271.2 788.5 262.4 790.3 247.3 788.1 241.4 790.5 239.4 791.1 243.2 794.1 261.3 812.5 258.2 814.7 269 815.7 270 825.8 258.5 832.1 259.7 836.7 254.4 842.2 255.7 846.6 261.7 845.5 266.6 834.5 260.5 834.8 267.8 828.1 279 824.7 279.6 Z" id="WV02"/>
<path d="M 713.7 485.1 715.5 497.1 714.4 501 702.7 500.7 686.8 504.9 689.6 501 688.7 496.3 683.4 491.5 683.6 487.9 713.7 485.1 Z" id="FL01"/>
<path d="M 714.4 501 715.5 497.1 713.7 485.1 736.9 482 740.5 488.9 763.6 487.3 772.6 486.7 775.5 493.4 773 498.9 775.1 507.1 773.6 510 767.2 504.7 759.5 501.3 753.3 503.7 742.9 512.3 733.9 514.6 731.4 508.6 719.4 502.5 714.4 501 Z" id="FL02"/>
<path d="M 773.6 510 775.1 507.1 773 498.9 775.5 493.4 772.6 486.7 791 485.4 795.3 485.1 799.4 489.6 801.6 504.8 802.5 511.4 800.9 519.4 802.8 523.1 798.8 523.6 795 521.9 789.4 524.2 774.4 513.3 773.6 510 Z" id="FL03"/>
<path d="M 801.6 504.8 799.4 489.6 799.5 478.5 810.5 479.4 812.5 486.6 807.3 490.5 808 496.4 810.8 500.4 806.1 501.3 801.6 504.8 Z" id="FL04"/>
<path d="M 810.8 500.4 808 496.4 807.3 490.5 812.5 486.6 817.5 499.9 810.8 500.4 Z" id="FL05"/>
<path d="M 802.8 523.1 800.9 519.4 802.5 511.4 801.6 504.8 806.1 501.3 810.8 500.4 817.5 499.9 825.4 513.6 824.3 518.5 819.2 520.2 818 524.3 812.5 525.8 806.3 522.5 802.8 523.1 Z" id="FL06"/>
<path d="M 818 524.3 819.2 520.2 824.3 518.5 825.4 513.6 832.4 522.6 827.5 523.4 826.1 527.9 817.8 528.5 818 524.3 Z" id="FL07"/>
<path d="M 826.1 527.9 827.5 523.4 832.4 522.6 838.1 529.7 838.4 538.1 845.9 550.2 838.3 551.5 833.8 550.2 831.4 533.5 826.8 531.7 826.1 527.9 Z" id="FL08"/>
<path d="M 826.8 531.7 831.4 533.5 833.8 550.2 828.3 550.9 825.9 546.9 815.8 538.2 818.3 533.9 819.6 531.4 826.8 531.7 Z" id="FL09"/>
<path d="M 817.8 528.5 826.1 527.9 826.8 531.7 819.6 531.4 818.3 533.9 817.8 528.5 Z" id="FL10"/>
<path d="M 798.8 523.6 802.8 523.1 806.3 522.5 812.5 525.8 818 524.3 817.8 528.5 818.3 533.9 815.8 538.2 808.8 542.3 806.6 539.5 805.7 533.2 800.6 530.6 802.3 527.2 798.8 523.6 Z" id="FL11"/>
<path d="M 789.4 524.2 795 521.9 798.8 523.6 802.3 527.2 800.6 530.6 805.7 533.2 806.6 539.5 804.1 538.1 796.8 543 794.4 543.3 791.1 543.8 793 536.8 792.6 531.4 789.4 524.2 Z" id="FL12"/>
<path d="M 791.1 543.8 794.4 543.3 794.9 547 794.6 549.5 795.4 554.7 791.1 550.7 791.1 543.8 Z" id="FL13"/>
<path d="M 794.4 543.3 796.8 543 801.4 547.7 801.3 551.7 798.2 555.5 800.9 550.5 794.9 547 794.4 543.3 Z" id="FL14"/>
<path d="M 806.6 539.5 808.8 542.3 807.8 547.3 801.4 547.7 796.8 543 804.1 538.1 806.6 539.5 Z" id="FL15"/>
<path d="M 798.2 555.5 801.3 551.7 801.4 547.7 807.8 547.3 810.3 564.3 805.5 560.7 797.2 561.8 798.2 555.5 Z" id="FL16"/>
<path d="M 797.2 561.8 805.5 560.7 810.3 564.3 810.9 568.4 821.4 566.8 823.2 578.4 814.5 574.2 811.7 574.6 808.7 575 807.1 574.8 797.2 561.8 Z" id="FL17"/>
<path d="M 833.8 550.2 838.3 551.5 840 561.7 836.2 566.3 838.9 582.7 830.6 584.2 829.9 580.2 823.3 579 823.2 578.4 821.4 566.8 810.9 568.4 810.3 564.3 807.8 547.3 808.8 542.3 815.8 538.2 825.9 546.9 828.3 550.9 833.8 550.2 Z" id="FL18"/>
<path d="M 811.7 574.6 814.5 574.2 823.2 578.4 823.3 579 820.1 584.3 823.9 593.9 819.7 589.7 817.2 583.2 811.1 579.9 811.7 574.6 Z" id="FL19"/>
<path d="M 838.9 582.7 836.2 566.3 842.7 565.3 848.2 569.6 854.8 567.8 851.7 573.8 852.3 577.5 854.8 583.8 848.8 583.8 849.6 588.3 840.1 589.3 838.9 582.7 Z" id="FL20"/>
<path d="M 838.3 551.5 845.9 550.2 852.8 562.1 855 567.7 854.8 567.8 848.2 569.6 842.7 565.3 836.2 566.3 840 561.7 838.3 551.5 Z" id="FL21"/>
<path d="M 852.3 577.5 851.7 573.8 854.8 567.8 855 567.7 855.8 575.8 852.3 577.5 Z" id="FL22"/>
<path d="M 854.8 583.8 852.3 577.5 855.8 575.8 856.2 583.9 854.8 583.8 Z" id="FL23"/>
<path d="M 856.8 591.9 855.3 591.3 853 587.4 856.4 586.7 856.8 591.9 Z" id="FL24"/>
<path d="M 849.6 588.3 848.8 583.8 854.8 583.8 856.2 583.9 856.4 586.7 853 587.4 849.6 588.3 Z" id="FL25"/>
<path d="M 823.3 579 829.9 580.2 830.6 584.2 838.9 582.7 840.1 589.3 849.6 588.3 853 587.4 855.3 591.3 852.1 592.1 827.9 595.4 823.9 593.9 820.1 584.3 823.3 579 Z" id="FL26"/>
<path d="M 855.3 591.3 856.8 591.9 853.7 597.7 852.1 592.1 855.3 591.3 Z" id="FL27"/>
<path d="M 827.9 595.4 852.1 592.1 853.7 597.7 856 602 851.9 605.8 838.8 610.2 837.1 605.1 832.2 597.5 827.9 595.4 Z M 824.8 625.6 825.8 623.3 833.7 619.1 835.8 621.7 824.8 625.6 Z" fill-rule="evenodd" id="FL28"/>
<path d="M 373.7 151 369.7 199 365.6 247.2 349.5 245.9 306.9 241.2 275.9 237.3 245.8 232.9 243.4 232.5 241.4 232.2 240.2 232 244.1 208 244.4 206 245.4 199.5 248 183.7 250.5 168.1 253.4 148.9 253.8 146.7 255.5 136.5 262.2 137.8 266.9 138.3 303 143.4 341.9 148.1 372.2 150.9 373.7 151 Z" id="WY00"/>
<path d="M 939.6 129.2 942.6 139.4 949 144.9 947.8 150.2 947 149.9 946.3 150 943.5 152.5 936.2 155 933.2 149.3 940.3 146.8 940.9 143.6 929.1 138.3 933.9 130.9 930.7 122.5 935.7 121.9 936.1 117.8 939.6 129.2 Z" id="NH01"/>
<path d="M 936.1 117.8 935.7 121.9 930.7 122.5 933.9 130.9 929.1 138.3 940.9 143.6 940.3 146.8 933.2 149.3 936.2 155 943.5 152.5 942.5 153.4 942.8 154.3 941.3 156.1 927.2 159.2 921.2 160.5 918.7 157.3 918.7 155.5 919.8 154 919.5 152.2 917.6 140.2 918.3 137.8 918.8 135.9 919.6 125.2 918.9 123.2 925.1 115.6 922.9 109.6 924.1 102.8 924.1 97.1 928.5 94.3 936.1 117.8 Z" id="NH02"/>
<path d="M 888.3 239.9 890.3 237.9 890.1 237.6 891.5 235.1 894 237.8 895 239.9 898.3 240.7 896 245 888.3 239.9 Z" id="NJ01"/>
<path d="M 900.8 215.6 902.4 213.9 902.6 217 900.8 215.6 Z" id="NJ10"/>
<path d="M 902.4 213.9 900.8 215.6 897 216.9 893.4 211.1 894.7 208.5 899.1 208.8 903 213.5 902.4 213.9 Z" id="NJ11"/>
<path d="M 891.4 227 899.7 218.7 903.2 223 895.6 230 891.4 227 Z" id="NJ12"/>
<path d="M 888.3 239.9 896 245 898.3 240.7 904 243.8 903.5 237.2 909.1 233.6 909.6 237.4 907.2 245.9 903.1 251.6 898.7 254.8 893.1 254.2 885.4 250.3 884.1 246.6 884.1 246.4 888.3 239.9 Z" id="NJ02"/>
<path d="M 898.3 240.7 895 239.9 894 237.8 891.5 235.1 890.1 237.6 890 237.2 891.3 235.3 892.4 234.1 896.3 230.5 895.6 230 903.2 223 905.3 221.7 905.5 224.2 899.7 231.7 903.5 237.2 904 243.8 898.3 240.7 Z" id="NJ03"/>
<path d="M 909.1 233.6 903.5 237.2 899.7 231.7 905.5 224.2 905.3 221.7 908.8 226.7 909.1 233.6 Z" id="NJ04"/>
<path d="M 899.1 208.8 894.7 208.5 890.6 210.7 888 206.4 890.3 202.1 899.6 205.3 906.3 207.3 906.3 209.3 906.3 210.2 906.1 211.1 899.1 208.8 Z" id="NJ05"/>
<path d="M 903.2 223 899.7 218.7 903.1 218.1 908.2 221.6 908.8 226.7 905.3 221.7 903.2 223 Z" id="NJ06"/>
<path d="M 900.8 215.6 902.6 217 902.9 217.1 903.1 218.1 899.7 218.7 891.4 227 885.4 221.7 884.9 212.9 888 206.4 890.6 210.7 894.7 208.5 893.4 211.1 897 216.9 900.8 215.6 Z" id="NJ07"/>
<path d="M 902.6 217 902.4 213.9 903 213.5 905.8 212.4 905.6 213.8 905.6 214.6 902.9 217.1 902.6 217 Z" id="NJ08"/>
<path d="M 903 213.5 899.1 208.8 906.1 211.1 906 211.9 905.8 212.4 903 213.5 Z" id="NJ09"/>
<path d="M 297.2 381.2 299.4 378.8 309.3 379 314.8 387.5 329.2 389 329.6 384.8 352.3 386.9 351 401.6 354.5 401.9 353.5 414.5 355.5 414.7 354 424.5 347.5 424.6 339.2 429.9 333.3 430 332.4 435.5 324.2 434.9 320.5 437.6 312.6 427.4 303.8 426.5 304.5 420 310.8 420.9 313.8 417 314.9 406.5 305.2 405.5 299.9 395.1 300.9 391.5 305.7 392.2 301.7 381.8 297.2 381.2 Z" id="NM01"/>
<path d="M 297.2 381.2 301.7 381.8 305.7 392.2 300.9 391.5 299.9 395.1 305.2 405.5 314.9 406.5 313.8 417 310.8 420.9 304.5 420 303.8 426.5 312.6 427.4 320.5 437.6 324.2 434.9 332.4 435.5 332 439.7 339.1 440.4 337.6 444.2 346.8 444.9 348 441.1 353.9 441.6 353.5 446.3 368.5 448.5 369.4 437.3 367.3 463.9 367.2 466 342.4 464 299.7 459.8 295.6 459.3 295.2 459.3 296.4 464.5 262.4 460.6 261 471.3 243.9 469.1 247.2 445 252 410.7 256.7 377.2 260.6 379.9 266.3 379.8 267.8 375.5 292.1 378.5 297.2 381.2 Z" id="NM02"/>
<path d="M 332.4 435.5 333.3 430 339.2 429.9 347.5 424.6 354 424.5 355.5 414.7 353.5 414.5 354.5 401.9 351 401.6 352.3 386.9 329.6 384.8 329.2 389 314.8 387.5 309.3 379 299.4 378.8 297.2 381.2 292.1 378.5 267.8 375.5 266.3 379.8 260.6 379.9 256.7 377.2 262.7 333.4 303.9 338.8 351.9 343.6 375.7 345.4 377.3 345.5 389.6 346.5 377.3 345.5 376.4 357.6 375.7 357.5 374.2 377.7 372.5 399.9 370.2 428.9 369.4 437.3 368.5 448.5 353.5 446.3 353.9 441.6 348 441.1 346.8 444.9 337.6 444.2 339.1 440.4 332 439.7 332.4 435.5 Z" id="NM03"/>
<path d="M 897.6 327.7 897.2 327.9 885.7 335.4 887.8 337.2 893.4 334.6 895.4 342.2 880 344.4 877.5 346.1 869 343.5 863.9 349 868.3 351.4 870.9 357.5 868.5 362.4 855.4 361.1 854 359.9 856.6 357.9 857.3 351.9 852.6 347 855.6 337 849.6 336.6 846.2 339.3 845.5 330.5 874.6 324.8 874.5 324.7 894.2 320.5 897.6 327.7 Z" id="NC01"/>
<path d="M 793.4 358.5 799.3 355.3 798.8 350.8 801 345.8 805.4 343.9 814.8 343 814.3 348.7 805.2 349.6 805.6 363 802.7 366 793 367.1 790.9 363.9 793.4 358.5 Z" id="NC10"/>
<path d="M 781 347.6 785.2 352.4 784.2 355.1 781.4 359.3 785.1 365.3 777.9 366.9 780.6 372.3 777.2 375 768.9 379.2 762.6 381.8 739 385.1 740.3 378.2 744.5 372.8 745.6 371.8 748.6 369.8 749.9 369.5 752.7 369.3 755.3 367.1 757.3 365 761.2 362.8 768 354.9 769.5 357.3 776 351.6 777.6 352.6 779.3 352 781 347.6 Z" id="NC11"/>
<path d="M 806.6 373.3 803.3 367.6 806.3 365.4 807.3 366.2 806.6 373.3 Z" id="NC12"/>
<path d="M 845.5 330.5 846.2 339.3 849.6 336.6 855.6 337 852.6 347 857.3 351.9 856.6 357.9 854 359.9 851.4 361.1 842.2 363.7 836.5 363.6 833 359.2 837 354.6 841.1 355 843.6 351.2 847.5 352.3 851.9 347.2 848.2 344.2 843.3 344 840.4 339 831.7 340.4 826.5 341.2 825.6 334.2 845.5 330.5 Z" id="NC13"/>
<path d="M 793.4 358.5 790.9 363.9 793 367.1 802.7 366 805.6 363 806.3 365.4 803.3 367.6 806.6 373.3 806.4 375.2 801.9 372.3 781.2 374.4 777.2 375 780.6 372.3 777.9 366.9 785.1 365.3 781.4 359.3 784.2 355.1 789.7 358.8 793.4 358.5 Z" id="NC14"/>
<path d="M 843.3 344 848.2 344.2 851.9 347.2 847.5 352.3 843.6 351.2 843.3 344 Z" id="NC02"/>
<path d="M 854 359.9 855.4 361.1 868.5 362.4 870.9 357.5 868.3 351.4 863.9 349 869 343.5 877.5 346.1 880 344.4 895.4 342.2 895.4 336.7 899.9 335.8 900.9 343.2 896 349.4 889.1 353.8 890 359.6 893.6 362.2 888.9 367 883.8 367.9 878.2 371.3 873.1 377.1 868.6 371 860.3 372.6 858.3 376.9 850.2 369.1 851.4 361.1 854 359.9 Z" id="NC03"/>
<path d="M 843.6 351.2 841.1 355 834.1 353.9 831.7 340.4 840.4 339 843.3 344 843.6 351.2 Z" id="NC04"/>
<path d="M 814.8 343 805.4 343.9 801 345.8 798.8 350.8 799.3 355.3 793.4 358.5 789.7 358.8 784.2 355.1 785.2 352.4 781 347.6 783.1 345.5 784.4 339.8 784.4 339.7 810.8 336.6 821.8 334.8 853.3 329 871 325.5 874.6 324.8 845.5 330.5 825.6 334.2 826.5 341.2 821 347.5 814.8 343 Z" id="NC05"/>
<path d="M 805.6 363 805.2 349.6 814.3 348.7 814.8 343 821 347.5 818 350.7 819.3 360.7 809.7 362.4 807.3 366.2 806.3 365.4 805.6 363 Z" id="NC06"/>
<path d="M 842.2 363.7 851.4 361.1 850.2 369.1 858.3 376.9 860.3 372.6 868.6 371 873.1 377.1 869.1 383 867.1 391.7 855.8 394.9 842.7 385.5 844.6 377.5 839.4 373.3 843.4 366.4 842.2 363.7 Z" id="NC07"/>
<path d="M 806.6 373.3 807.3 366.2 809.7 362.4 819.3 360.7 825 359.6 827.5 365.6 835.4 371.8 839.4 373.3 844.6 377.5 842.7 385.5 829.7 376.1 812.5 378.7 807.9 379.4 806.4 375.2 806.6 373.3 Z" id="NC08"/>
<path d="M 841.1 355 837 354.6 833 359.2 836.5 363.6 842.2 363.7 843.4 366.4 839.4 373.3 835.4 371.8 827.5 365.6 825 359.6 819.3 360.7 818 350.7 821 347.5 826.5 341.2 831.7 340.4 834.1 353.9 841.1 355 Z" id="NC09"/>
<path d="M 501.3 134.3 485.9 134.1 455.4 133.2 426.1 131.8 402.6 130.4 375.8 128.3 375.9 127 378.5 96.7 381.9 55.6 411.2 57.8 447.6 59.7 491.1 60.9 493 68.3 492.2 81.3 496.9 94.6 497.9 111.2 497.5 117 500.8 124.8 501.3 134.3 Z" id="ND00"/>
<path d="M 504.9 243.9 494.5 242.4 494.4 252.2 507 253.5 512.2 248.8 513.8 258.6 502.4 258.6 502.4 265 494.2 264.9 494.2 260.7 486 260.6 486.1 249.3 482.7 249.3 482.1 243.6 478 240.4 478.2 226.8 500.9 227 500.9 235.4 504.9 243.9 Z" id="NE01"/>
<path d="M 365.6 247.2 369.7 199 412 202.2 440 203.6 466.9 204.5 476.5 210.2 478.6 207.9 489.4 208.6 498.7 213.4 502.9 217.3 504.6 225.2 508.5 230.1 509 240.2 511.9 244 504.9 243.9 500.9 235.4 500.9 227 478.2 226.8 478 240.4 482.1 243.6 482.7 249.3 486.1 249.3 486 260.6 494.2 260.7 494.2 264.9 502.4 265 502.4 258.6 513.8 258.6 515.3 263.5 517.7 269.4 523.4 277.6 506.4 277.6 477.3 277.3 441.7 276.3 400.1 274.1 401.6 249.9 365.6 247.2 Z" id="NE03"/>
<path d="M 512.2 248.8 507 253.5 494.4 252.2 494.5 242.4 504.9 243.9 511.9 244 512.2 248.8 Z" id="NE02"/>
<path d="M 926.8 208.5 919 208.6 915.7 211.2 915.7 207.3 928.5 202.3 932 198.5 937.9 199.6 926.8 208.5 Z" id="NY01"/>
<path d="M 915.7 211.2 919 208.6 926.8 208.5 915.8 215 915.2 212.5 915.7 211.2 Z" id="NY02"/>
<path d="M 915.7 207.3 915.7 211.2 915.2 212.5 910.7 213.1 910.2 213.1 908.7 212.1 909.3 211.5 915.7 207.3 Z" id="NY03"/>
<path d="M 915.2 212.5 915.8 215 911.1 216.4 910.7 213.1 915.2 212.5 Z" id="NY04"/>
<path d="M 910.2 213.1 910.7 213.1 911.1 216.4 908 217.6 908.8 214.8 908.6 214 910.2 213.1 Z" id="NY05"/>
<path d="M 908.7 212.1 910.2 213.1 908.6 214 907.4 213 908.7 212.1 Z" id="NY06"/>
<path d="M 908.6 214 908.8 214.8 906.6 215 906.6 214 906.8 212.9 907.4 213 908.6 214 Z" id="NY07"/>
<path d="M 908.8 214.8 908 217.6 906.7 217.5 907.1 217.1 906.9 215.1 906.6 215 908.8 214.8 Z" id="NY08"/>
<path d="M 906.9 215.1 907.1 217.1 906.6 216.5 906.9 215.1 Z" id="NY09"/>
<path d="M 905.6 214.6 905.6 213.8 906.6 214 906.6 215 906.9 215.1 906.6 216.5 905.8 216.3 905.6 214.6 Z" id="NY10"/>
<path d="M 907.1 217.1 906.7 217.5 905.8 216.3 906.6 216.5 907.1 217.1 Z" id="NY11"/>
<path d="M 905.6 213.8 905.8 212.4 906 211.9 906.8 212.6 906.8 212.9 906.6 214 905.6 213.8 Z" id="NY12"/>
<path d="M 906.1 211.1 906.3 210.2 906.7 211.9 906.8 212.6 906 211.9 906.1 211.1 Z" id="NY13"/>
<path d="M 909.3 211.5 908.7 212.1 907.4 213 906.8 212.9 906.8 212.6 906.7 211.9 908.2 210.2 908.9 209.6 909.3 211.5 Z" id="NY14"/>
<path d="M 906.3 210.2 906.3 209.3 908.2 210.2 906.7 211.9 906.3 210.2 Z" id="NY15"/>
<path d="M 906.3 209.3 906.3 207.3 910.4 205.9 910.5 206.5 908.9 209.6 908.2 210.2 906.3 209.3 Z" id="NY16"/>
<path d="M 906.3 207.3 899.6 205.3 903 199.9 904.2 191.9 909.3 191.1 910.3 196.9 912.3 200.5 910.4 205.9 906.3 207.3 Z" id="NY17"/>
<path d="M 899.6 205.3 890.3 202.1 888.9 200.7 896.7 194.4 899 188.5 896.8 183.9 900 181.8 907.5 180.8 909.3 191.1 904.2 191.9 903 199.9 899.6 205.3 Z" id="NY18"/>
<path d="M 907.5 180.8 900 181.8 896.8 183.9 899 188.5 896.7 194.4 888.9 200.7 884.6 200.3 881.9 194.1 875.3 189.5 873.1 190 862.3 192.3 861.6 186.7 850.3 185.2 849.5 179.6 859.6 176.8 862.4 174.4 872.5 171.7 873.2 168.1 883.2 167.1 883.8 174.7 889.3 177.5 892.2 175.5 900 172.3 900.4 164.1 906.6 161.4 907.1 163.6 907.3 163.5 907.5 180.8 Z" id="NY19"/>
<path d="M 906.6 161.4 900.4 164.1 900 172.3 892.2 175.5 892.1 167.9 888.5 162.1 891.1 159.4 898.4 156.7 900.1 160.4 906 158.9 906.6 161.4 Z" id="NY20"/>
<path d="M 892.2 175.5 889.3 177.5 883.8 174.7 883.2 167.1 873.2 168.1 869.5 161.6 860.3 164.1 858.3 143 858.8 136.2 854.4 134.6 861.4 122.4 866.2 117.7 893.1 110.7 894.5 120.1 897.8 127.8 897 133.7 903.2 145.3 906 158.9 900.1 160.4 898.4 156.7 891.1 159.4 888.5 162.1 892.1 167.9 892.2 175.5 Z" id="NY21"/>
<path d="M 873.2 168.1 872.5 171.7 862.4 174.4 859.6 176.8 849.5 179.6 847 173.4 850.6 169.7 849.7 164.6 855 163 860.3 164.1 869.5 161.6 873.2 168.1 Z" id="NY22"/>
<path d="M 850.3 185.2 861.6 186.7 862.3 192.3 848 195.2 831.1 198.7 801.1 204.2 797.3 198.2 806.8 189.5 810.7 182.6 813.5 182 812.3 175.4 809.9 174.7 816.3 174.8 818.8 188.2 829.7 186.1 837.7 188.4 850.3 185.2 Z" id="NY23"/>
<path d="M 849.5 179.6 850.3 185.2 837.7 188.4 829.7 186.1 818.8 188.2 816.3 174.8 809.9 174.7 806 175.4 805.4 172.6 814.6 167.9 823.1 166.5 826.3 175.2 836 175.2 834.1 166.6 841.5 165.2 852.7 155.4 852.2 146.7 847.8 141 854.4 134.6 858.8 136.2 858.3 143 860.3 164.1 855 163 849.7 164.6 850.6 169.7 847 173.4 849.5 179.6 Z" id="NY24"/>
<path d="M 834.1 166.6 836 175.2 826.3 175.2 823.1 166.5 830.9 168 834.1 166.6 Z" id="NY25"/>
<path d="M 809.9 174.7 812.3 175.4 813.5 182 810.7 182.6 806 175.4 809.9 174.7 Z" id="NY26"/>
<path d="M 945.4 177.8 940.1 173.5 940.4 173.4 944 172.3 948.6 178.8 949.3 179.5 950.8 180.9 951.7 183.3 945.4 177.8 Z" id="RI01"/>
<path d="M 940.1 173.5 945.4 177.8 946.2 187.9 940 190.9 940.5 188.3 936.9 174.5 940.1 173.5 Z" id="RI02"/>
<path d="M 143.3 334.1 147.1 333.3 151.2 337.5 150.5 349.1 140 347 143.3 334.1 Z" id="NV01"/>
<path d="M 176.2 277.9 158.8 274.4 144.7 259.5 119 253.8 108.8 253.7 97.8 251.1 92.5 248.1 86.8 253.9 80.8 254 79.3 259.9 69.9 246 74.3 229 82.1 199 88 176.1 110.9 181.5 139.6 188 174.2 195.5 191.5 199 187 222.6 179.5 261.2 176.2 277.9 Z" id="NV02"/>
<path d="M 143.3 334.1 140 347 150.5 349.1 150.2 359.6 148.2 363.2 143.4 355.9 132.7 340.1 129.8 335.6 130.6 331.8 143.3 334.1 Z" id="NV03"/>
<path d="M 151.2 337.5 147.1 333.3 143.3 334.1 130.6 331.8 129.8 335.6 112.6 309.9 99.9 290.9 79.3 259.9 80.8 254 86.8 253.9 92.5 248.1 97.8 251.1 108.8 253.7 119 253.8 144.7 259.5 158.8 274.4 176.2 277.9 168.5 317.8 165 337 162.1 340.7 158.6 337 151.2 337.5 Z" id="NV04"/>
<path d="M 344.3 279 344.8 274.8 352.6 272.7 352.8 274.7 344.3 279 Z" id="CO01"/>
<path d="M 306.9 241.2 349.5 245.9 347.7 254.1 348.4 257.7 345.3 261.3 346.7 268.8 338.6 273 337.9 279.6 330 278.9 326.1 283.3 318.6 282.6 306.7 274.8 309 267.9 309.8 260.5 302.5 259.7 303.6 252.1 305.8 250.9 306.9 241.2 Z" id="CO02"/>
<path d="M 275.9 237.3 306.9 241.2 305.8 250.9 303.6 252.1 302.5 259.7 309.8 260.5 309 267.9 306.7 274.8 318.6 282.6 314.9 288.9 317.3 295.6 316.6 299.7 319.4 305.6 323.7 305.4 333.6 320 338.5 317.4 343.9 305.7 356.3 306.8 360.5 307.1 359.6 316.2 367.8 317.7 372.2 314.3 370.9 329.4 377.1 329.8 375.7 345.4 351.9 343.6 303.9 338.8 262.7 333.4 266.6 305.4 269.7 281.9 275.9 237.3 Z" id="CO03"/>
<path d="M 349.5 245.9 365.6 247.2 401.6 249.9 400.1 274.1 398 308.8 396.7 329.9 396.2 336.8 395.9 341.4 395.8 343.6 395.6 346.9 395.4 346.9 389.6 346.5 377.3 345.5 375.7 345.4 377.1 329.8 370.9 329.4 372.2 314.3 367.8 317.7 359.6 316.2 360.5 307.1 356.3 306.8 356.2 296.2 352.5 291.7 343.6 290.8 338.2 290.3 343.9 280.7 350.1 280.8 352.8 274.7 352.6 272.7 354.1 263.9 356.3 258.8 350.4 257.9 345.3 261.3 348.4 257.7 347.7 254.1 349.5 245.9 Z" id="CO04"/>
<path d="M 356.3 306.8 343.9 305.7 344.6 299 343.6 290.8 352.5 291.7 356.2 296.2 356.3 306.8 Z" id="CO05"/>
<path d="M 344.3 279 352.8 274.7 350.1 280.8 343.9 280.7 344.3 279 Z" id="CO06"/>
<path d="M 344.8 274.8 344.3 279 343.9 280.7 338.2 290.3 343.6 290.8 344.6 299 343.9 305.7 338.5 317.4 333.6 320 323.7 305.4 319.4 305.6 316.6 299.7 317.3 295.6 314.9 288.9 318.6 282.6 326.1 283.3 330 278.9 337.9 279.6 338.6 273 346.7 268.8 344.8 274.8 Z" id="CO07"/>
<path d="M 352.6 272.7 344.8 274.8 346.7 268.8 345.3 261.3 350.4 257.9 356.3 258.8 354.1 263.9 352.6 272.7 Z" id="CO08"/>
<path d="M 88 176.1 82.1 199 74.3 229 73.7 223.4 67.6 213.1 58.8 211.5 60 207.1 52.4 205 53.8 210 51 219.5 54.3 227.1 49.8 227.6 42.5 234.5 47.9 236.5 43.1 240.7 41.6 245.1 39.5 244.5 36.6 238.9 27.6 236.4 26.3 228.8 23.4 227 24.9 219 22.2 218.3 24.9 202.1 24.1 199.8 32.3 196 32.1 193.1 40.4 183.5 39.1 179.1 33 180.5 29.2 184.4 24.3 179.2 24.2 173.7 21.5 167.1 23.4 161.8 27.8 158.8 47.3 164.3 88 176.1 Z" id="CA01"/>
<path d="M 27.8 158.8 23.4 161.8 21.5 167.1 24.2 173.7 24.3 179.2 29.2 184.4 33 180.5 39.1 179.1 40.4 183.5 32.1 193.1 32.3 196 24.1 199.8 24.9 202.1 22.2 218.3 18.6 219.1 17.6 225.6 15.1 229 20.7 240.7 16.5 245.3 19.3 254.5 17.7 261.3 10.8 254 11.7 248.8 10.2 243.3 3.7 231.4 4 218.7 6.5 214.3 6.9 207.3 4.3 199.7 1 194.7 1.5 190.2 8.9 181.5 14.6 169 16 155.3 22.6 157.3 27.8 158.8 Z" id="CA02"/>
<path d="M 74.3 229 69.9 246 79.3 259.9 99.9 290.9 112.6 309.9 129.8 335.6 132.7 340.1 131 340.1 95.1 332 89.1 328.2 86.7 306.5 86.1 297.6 83.5 295.8 83.3 288.4 79.6 284.1 76.2 273.9 72.6 267.7 72.4 263.4 68.1 261.6 62.3 255 56.3 254.1 56.1 250.3 50.7 244.9 47.9 246.9 48.4 251.8 47.1 252 45.9 246.6 41.6 245.1 43.1 240.7 47.9 236.5 42.5 234.5 49.8 227.6 54.3 227.1 51 219.5 53.8 210 52.4 205 60 207.1 58.8 211.5 67.6 213.1 73.7 223.4 74.3 229 Z" id="CA03"/>
<path d="M 22.2 218.3 24.9 219 23.4 227 26.3 228.8 27.6 236.4 36.6 238.9 39.5 244.5 39.5 247.8 33.3 259.1 30.5 258.7 30.7 252.6 25.9 251.2 21.3 254.3 19.3 254.5 16.5 245.3 20.7 240.7 15.1 229 17.6 225.6 18.6 219.1 22.2 218.3 Z" id="CA04"/>
<path d="M 48.4 251.8 47.9 246.9 50.7 244.9 56.1 250.3 56.3 254.1 62.3 255 68.1 261.6 72.4 263.4 72.6 267.7 76.2 273.9 79.6 284.1 83.3 288.4 83.5 295.8 86.1 297.6 86.7 306.5 75.2 303.7 71.3 296.7 67.8 293.3 62.5 294.8 61 298.2 58.7 296.9 59.8 292.1 56.6 286.6 54.6 276.2 45.7 278 45.3 273.3 42 270.4 51 270.3 47.4 262.9 47.1 257.5 48.4 251.8 Z" id="CA05"/>
<path d="M 39.5 244.5 41.6 245.1 45.9 246.6 47.1 252 39.5 247.8 39.5 244.5 Z" id="CA06"/>
<path d="M 47.1 252 48.4 251.8 47.1 257.5 35.8 259.6 32.2 260.3 30.5 258.7 33.3 259.1 39.5 247.8 47.1 252 Z" id="CA07"/>
<path d="M 21.3 254.3 25.9 251.2 30.7 252.6 30.5 258.7 32.2 260.3 24.5 258.8 22.7 261.3 21.2 260.4 21.3 254.3 Z" id="CA08"/>
<path d="M 47.1 257.5 47.4 262.9 51 270.3 42 270.4 33.7 268.8 34.4 266.2 35.8 259.6 47.1 257.5 Z" id="CA09"/>
<path d="M 32.2 260.3 35.8 259.6 34.4 266.2 28.6 266.4 23.1 263 22.7 261.3 24.5 258.8 32.2 260.3 Z" id="CA10"/>
<path d="M 21.2 260.4 22.7 261.3 23.1 263 22.4 266.6 21.2 260.4 Z" id="CA12"/>
<path d="M 42 270.4 45.3 273.3 45.7 278 54.6 276.2 56.6 286.6 59.8 292.1 58.7 296.9 56.8 299.3 62.7 306.9 55 307.2 54.1 310.6 45.3 317 40.3 310.7 43.5 302 34.6 288.6 32.9 282.4 33.8 274.4 33.7 268.8 42 270.4 Z" id="CA13"/>
<path d="M 34.4 266.2 33.7 268.8 33.8 274.4 26.8 272.4 22.3 270.5 22.4 266.6 23.1 263 28.6 266.4 34.4 266.2 Z" id="CA14"/>
<path d="M 16.5 263.9 18.5 264.4 22 271.5 19.1 271.1 16.3 264.9 16.5 263.9 Z" id="CA15"/>
<path d="M 26.6 276.1 27.8 284.6 24.5 284.7 25.3 294.3 23.5 305.8 28.3 315.3 46.5 320.3 47.6 327.5 35.1 326 30 324.2 26.1 318 21 303.2 18.3 299.7 18.7 295.2 23.6 288.7 16.3 279 22.7 279.7 26.6 276.1 Z" id="CA19"/>
<path d="M 22.3 270.5 26.8 272.4 24.2 275.9 22.8 272.2 22.3 270.5 Z" id="CA17"/>
<path d="M 33.8 274.4 32.9 282.4 34.6 288.6 43.5 302 40.3 310.7 45.3 317 46.5 320.3 28.3 315.3 23.5 305.8 25.3 294.3 24.5 284.7 27.8 284.6 26.6 276.1 24.2 275.9 26.8 272.4 33.8 274.4 Z" id="CA18"/>
<path d="M 16.3 264.9 19.1 271.1 22 271.5 22.8 272.2 24.2 275.9 26.6 276.1 22.7 279.7 16.3 279 15 268.2 16.3 264.9 Z" id="CA16"/>
<path d="M 86.7 306.5 89.1 328.2 95.1 332 93.3 340.2 88.3 340.9 79.5 345.6 83 348.7 90.7 351.1 89.8 355.1 84.4 353.8 65.8 350.2 59 347.8 55.7 344.8 56.2 340.6 51.4 332.7 68.8 336.6 72 321.8 69.3 316.6 63.5 311.2 54.1 310.6 55 307.2 62.7 306.9 64 311.3 69.4 314.1 69.7 306.7 67.4 302.6 62.1 302.1 61 298.2 62.5 294.8 67.8 293.3 71.3 296.7 75.2 303.7 86.7 306.5 Z" id="CA20"/>
<path d="M 58.7 296.9 61 298.2 62.1 302.1 67.4 302.6 69.7 306.7 69.4 314.1 64 311.3 62.7 306.9 56.8 299.3 58.7 296.9 Z" id="CA21"/>
<path d="M 45.3 317 54.1 310.6 63.5 311.2 69.3 316.6 72 321.8 68.8 336.6 51.4 332.7 47.6 327.5 46.5 320.3 45.3 317 Z" id="CA22"/>
<path d="M 132.7 340.1 143.4 355.9 139.6 369.1 134.1 383.1 130.4 383.4 99.1 376.7 98.8 377.4 93.2 376.1 91.9 375.5 90.6 369.8 90.2 366 81.9 362.9 84.4 353.8 89.8 355.1 90.7 351.1 83 348.7 79.5 345.6 88.3 340.9 93.3 340.2 95.1 332 131 340.1 132.7 340.1 Z" id="CA23"/>
<path d="M 30 324.2 35.1 326 47.6 327.5 51.4 332.7 56.2 340.6 55.7 344.8 53.1 355.3 57.3 356.4 55.2 361.3 50.5 355.7 42.3 352.4 33.4 350.4 30.9 346.5 34.4 334.3 30.3 329.6 30 324.2 Z" id="CA24"/>
<path d="M 143.4 355.9 148.2 363.2 151.3 377.3 154.5 381.6 148.2 385.2 145.1 389.1 143.5 398 139 400.6 137.8 408 141.3 410.7 139.7 416.7 135.7 417 107.8 413.7 112.4 394.7 101.9 392.4 99.2 389 110.3 390 110.2 386.7 105.9 381.1 100.2 384.2 94.1 383.9 98.8 377.4 99.1 376.7 130.4 383.4 134.1 383.1 139.6 369.1 143.4 355.9 Z" id="CA25"/>
<path d="M 55.7 344.8 59 347.8 65.8 350.2 67.5 363.5 60.2 367.3 55.2 361.3 57.3 356.4 53.1 355.3 55.7 344.8 Z" id="CA26"/>
<path d="M 65.8 350.2 84.4 353.8 81.9 362.9 76.7 362.9 74.8 362.2 70.5 364.5 67.5 363.5 65.8 350.2 Z" id="CA27"/>
<path d="M 81.9 362.9 90.2 366 90.6 369.8 86.3 372 83.6 371.3 82 367.6 77.2 371.1 75.6 371.3 75.5 368.6 76.7 362.9 81.9 362.9 Z" id="CA28"/>
<path d="M 70.5 364.5 74.8 362.2 72 367.7 70.5 364.5 Z" id="CA29"/>
<path d="M 74.8 362.2 76.7 362.9 75.5 368.6 72.3 370 71.3 369.6 71.1 368.8 72 367.7 74.8 362.2 Z" id="CA30"/>
<path d="M 77.2 371.1 82 367.6 83.6 371.3 81.9 372.1 77.2 371.1 Z" id="CA31"/>
<path d="M 60.2 367.3 67.5 363.5 70.5 364.5 72 367.7 71.1 368.8 68.4 369.8 60.2 367.3 Z" id="CA32"/>
<path d="M 90.6 369.8 91.9 375.5 90 374.7 86.3 372 90.6 369.8 Z" id="CA33"/>
<path d="M 75.5 368.6 75.6 371.3 75.8 372 73.7 371.3 72.3 370 75.5 368.6 Z" id="CA34"/>
<path d="M 83.6 371.3 86.3 372 90 374.7 86.7 375.8 84.9 376.8 82.8 373.3 81.9 372.1 83.6 371.3 Z" id="CA35"/>
<path d="M 71.1 368.8 71.3 369.6 70.6 371.5 71.2 375.7 70.2 377.8 68.4 369.8 71.1 368.8 Z" id="CA36"/>
<path d="M 71.3 369.6 72.3 370 73.7 371.3 73 372.7 70.6 371.5 71.3 369.6 Z" id="CA37"/>
<path d="M 75.6 371.3 77.2 371.1 81.9 372.1 82.8 373.3 80.4 374.6 75.5 374.9 75.8 372 75.6 371.3 Z" id="CA38"/>
<path d="M 91.9 375.5 93.2 376.1 92.4 382.4 86.7 375.8 90 374.7 91.9 375.5 Z" id="CA39"/>
<path d="M 82.8 373.3 84.9 376.8 86.5 384.6 85.6 385.5 81.1 384.6 79.6 380.4 79.8 376.7 80.4 374.6 82.8 373.3 Z" id="CA40"/>
<path d="M 93.2 376.1 98.8 377.4 94.1 383.9 100.2 384.2 105.9 381.1 110.2 386.7 110.3 390 99.2 389 92.2 385.6 86.5 384.6 84.9 376.8 86.7 375.8 92.4 382.4 93.2 376.1 Z" id="CA41"/>
<path d="M 73.7 371.3 75.8 372 75.5 374.9 75.2 377.4 74.5 378.3 72.1 378.4 73.5 372.9 73 372.7 73.7 371.3 Z" id="CA42"/>
<path d="M 71.2 375.7 70.6 371.5 73 372.7 73.5 372.9 71.2 375.7 Z" id="CA43"/>
<path d="M 70.2 377.8 71.2 375.7 73.5 372.9 72.1 378.4 70.2 377.8 Z" id="CA44"/>
<path d="M 75.5 374.9 80.4 374.6 79.8 376.7 78.1 379.9 75.2 377.4 75.5 374.9 Z" id="CA45"/>
<path d="M 79.8 376.7 79.6 380.4 78.1 379.9 79.8 376.7 Z" id="CA46"/>
<path d="M 79.6 380.4 81.1 384.6 80.4 385.7 74.5 378.3 75.2 377.4 78.1 379.9 79.6 380.4 Z" id="CA47"/>
<path d="M 99.2 389 101.9 392.4 112.4 394.7 107.8 413.7 92.8 411.9 90.2 408.4 92.6 406.3 90.9 400.8 89.6 393.9 89.9 389.2 85.6 385.5 86.5 384.6 92.2 385.6 99.2 389 Z" id="CA48"/>
<path d="M 81.1 384.6 85.6 385.5 89.9 389.2 89.6 393.9 86.8 401.1 86.3 395.9 80.4 385.7 81.1 384.6 Z" id="CA49"/>
<path d="M 89.6 393.9 90.9 400.8 88.5 406 87.4 410 85.7 407.6 86.8 401.1 89.6 393.9 Z" id="CA50"/>
<path d="M 90.9 400.8 92.6 406.3 90.2 408.4 88.5 406 90.9 400.8 Z" id="CA51"/>
<path d="M 90.2 408.4 92.8 411.9 87.4 410 88.5 406 90.2 408.4 Z" id="CA52"/>
<path d="M 763.6 487.3 740.5 488.9 736.9 482 733.8 476.3 734.5 469.5 732.2 464.4 732.7 446.2 738.6 443.7 737.9 437.8 741.7 436.1 747.3 438.9 749.2 435.9 756.5 435.7 759.6 433.7 761.8 441 756.2 445 761.3 448 762.1 454.3 756.2 457.6 755.5 464.9 757.1 478.9 762.6 478.3 763.6 487.3 Z" id="GA02"/>
<path d="M 749.2 435.9 747.3 438.9 741.7 436.1 737.9 437.8 738.6 443.7 732.7 446.2 732.6 446.1 728 438 723.6 422.5 721.2 413.7 728.1 412.8 733.7 415 733.5 421.4 741.9 421.4 745.9 421.7 749.8 427.3 749.2 435.9 Z" id="GA03"/>
<path d="M 799.4 489.6 795.3 485.1 791 485.4 789.9 479.8 783.3 471 783.1 460.1 786 452.5 796.2 454.8 798.5 446.1 805.1 442.9 809.8 438.9 811.9 444.9 814.7 445.3 817.8 447.1 813.1 454.3 812 465.7 809.7 469.5 810.5 479.4 799.5 478.5 799.4 489.6 Z" id="GA01"/>
<path d="M 772.6 486.7 763.6 487.3 762.6 478.3 757.1 478.9 755.5 464.9 756.2 457.6 762.1 454.3 761.3 448 756.2 445 761.8 441 759.6 433.7 756.5 435.7 749.2 435.9 749.8 427.3 754.5 428.4 764.8 425.6 769.9 427.6 773 436.2 768 440 774.2 449.7 781.8 454.2 786 452.5 783.1 460.1 783.3 471 789.9 479.8 791 485.4 772.6 486.7 Z" id="GA08"/>
<path d="M 809.8 438.9 805.1 442.9 798.5 446.1 796.2 454.8 786 452.5 781.8 454.2 774.2 449.7 768 440 773 436.2 769.9 427.6 774.6 422.3 772.3 417.9 774.9 414 771.4 411.6 776.6 405.3 788.9 413.9 791.5 418.4 798.4 423.1 801.1 424.9 804.7 434.4 809.8 438.9 Z" id="GA12"/>
<path d="M 733.7 415 728.1 412.8 721.2 413.7 717.1 399.1 717 399.1 717 399 714.8 391.1 714 388.1 716 387.9 716.1 387.9 716.3 387.9 716.6 387.9 720.9 387.3 727.9 386.5 729.5 386.3 730.6 386.1 733.1 385.8 733.5 389 733.2 392.1 733.7 395.6 725.8 395.8 727.4 408.6 735.5 407.7 736.7 411.6 733.7 415 Z" id="GA14"/>
<path d="M 741.9 421.4 733.5 421.4 733.7 415 736.7 411.6 739.8 411.5 741.6 410.6 741.7 411.7 738.9 417.4 741.9 421.4 Z" id="GA06"/>
<path d="M 736.7 411.6 735.5 407.7 727.4 408.6 725.8 395.8 733.7 395.6 739.8 395.4 739 399.9 739.8 411.5 736.7 411.6 Z" id="GA11"/>
<path d="M 741.9 421.4 738.9 417.4 741.7 411.7 743.3 416.9 741.9 421.4 Z" id="GA05"/>
<path d="M 741.7 411.7 741.6 410.6 745.7 407.5 747.1 409.2 747.2 417.3 743.3 416.9 741.7 411.7 Z" id="GA04"/>
<path d="M 745.9 421.7 741.9 421.4 743.3 416.9 747.2 417.3 747.1 409.2 750.2 409.2 750.8 416.5 745.9 421.7 Z" id="GA13"/>
<path d="M 741.6 410.6 739.8 411.5 739 399.9 739.8 395.4 748.6 391.3 750.5 403.2 745.7 407.5 741.6 410.6 Z" id="GA07"/>
<path d="M 739 385.1 762.6 381.8 758.7 389.2 764.1 392.9 759 395.2 760.1 405.3 752.9 405.9 750.2 409.2 747.1 409.2 745.7 407.5 750.5 403.2 748.6 391.3 739.8 395.4 733.7 395.6 733.2 392.1 733.5 389 733.1 385.8 735.4 385.6 737.9 385.3 739 385.1 Z" id="GA09"/>
<path d="M 749.8 427.3 745.9 421.7 750.8 416.5 750.2 409.2 752.9 405.9 760.1 405.3 759 395.2 764.1 392.9 768.2 393.5 776.6 405.3 771.4 411.6 774.9 414 772.3 417.9 774.6 422.3 769.9 427.6 764.8 425.6 754.5 428.4 749.8 427.3 Z" id="GA10"/>
<path d="M 920.1 178.9 924.9 179.1 927 183.6 926.4 188.5 923.2 189.5 920.7 183.2 913.9 185.7 913.7 179.5 920.1 178.9 Z" id="CT01"/>
<path d="M 936.9 174.5 940.5 188.3 940 190.9 926.5 195.7 926.4 188.5 927 183.6 924.9 179.1 920.1 178.9 936 174.3 936.9 174.5 Z" id="CT02"/>
<path d="M 923.2 189.5 926.4 188.5 926.5 195.7 918.2 200.4 917.3 192.4 923.2 189.5 Z" id="CT03"/>
<path d="M 910.5 206.5 910.4 205.9 912.3 200.5 910.3 196.9 916.2 195.4 917.3 192.4 918.2 200.4 910.5 206.5 Z" id="CT04"/>
<path d="M 910.3 196.9 909.3 191.1 907.5 180.8 913.7 179.5 913.9 185.7 920.7 183.2 923.2 189.5 917.3 192.4 916.2 195.4 910.3 196.9 Z" id="CT05"/>
<path d="M 508.1 378.1 505 370.7 510.8 370.7 510.8 364.4 514.7 364.4 516.1 370.7 519.2 374.9 517.5 378.1 508.1 378.1 Z" id="OK01"/>
<path d="M 508.1 378.1 517.5 378.1 519.2 374.9 516.1 370.7 514.7 364.4 510.8 364.4 510.8 350.4 514.1 350.4 519.7 350.4 537.1 350.2 537.3 362.4 541.3 389.1 541.3 392.6 541 431.6 533.5 429.2 526.3 423.9 507.8 427 504.4 430.4 492.2 424.1 491.6 418.8 493.4 410.7 500.7 410.8 502.8 406.6 501.2 401 502.1 387.7 498.7 383.4 507 383.4 508.1 378.1 Z" id="OK02"/>
<path d="M 389.6 346.5 395.4 346.9 395.6 346.9 411.4 347.8 420.5 348.2 433.8 348.7 442.9 349.2 443.2 349.2 446.7 349.3 466 349.9 489.6 350.3 507.9 350.4 510.8 350.4 510.8 364.4 510.8 370.7 505 370.7 508.1 378.1 507 383.4 498.7 383.4 498.8 376 483.5 376.1 475.2 380.9 475.1 387.3 482.4 387.3 478.2 390.4 469.9 389.3 469.7 401.9 455.3 401.5 455.1 407.9 449.7 406.6 447.4 413.8 437.9 412.5 432 407.9 434 360.9 401.4 359.3 376.4 357.6 377.3 345.5 389.6 346.5 Z" id="OK03"/>
<path d="M 501.2 401 502.8 406.6 500.7 410.8 493.4 410.7 491.6 418.8 492.2 424.1 492 424.2 489 429.5 481.3 424.9 472.2 422.9 464 418.7 461.5 420.9 447.4 413.8 449.7 406.6 455.1 407.9 455.3 401.5 469.7 401.9 469.9 389.3 478.2 390.4 482.4 387.3 488.5 389.6 488.4 400.5 497.2 402 501.2 401 Z" id="OK04"/>
<path d="M 498.7 383.4 502.1 387.7 501.2 401 497.2 402 488.4 400.5 488.5 389.6 482.4 387.3 475.1 387.3 475.2 380.9 483.5 376.1 498.8 376 498.7 383.4 Z" id="OK05"/>
<path d="M 731.6 274.1 732 281.7 727.4 282 727 288.1 719.5 286.3 725.6 281.6 724.5 274.5 731.6 274.1 Z" id="OH01"/>
<path d="M 731.6 274.1 724.5 274.5 721.3 266.9 725.1 266.3 729.4 267.5 735.5 264.4 737.3 273.9 731.6 274.1 Z" id="OH10"/>
<path d="M 771.9 223 763.8 222.7 769.4 218.4 771.9 223 Z" id="OH11"/>
<path d="M 774 276.9 773.6 277.8 764.1 278.6 762.9 272.2 758.6 269.7 752.4 271.5 751.9 265.9 751.7 262.6 749.7 258 748.1 252.6 753.3 252.2 752.7 247.3 760.1 245.1 766.8 244.1 770.1 241.9 772.5 247.4 777 249 780.2 257.9 772.3 261.8 773.9 265.9 771.3 274.8 774 276.9 Z" id="OH12"/>
<path d="M 772.2 224.9 775.2 233.2 775.7 237.5 769.9 240.2 767.2 227.4 772.2 224.9 Z" id="OH13"/>
<path d="M 771.9 223 769.4 218.4 777.2 211.7 785.2 207.4 788.5 227.5 779.9 228.9 775.2 233.2 772.2 224.9 771.9 223 Z" id="OH14"/>
<path d="M 737.3 273.9 735.5 264.4 729.4 267.5 725.1 266.3 721.8 262.5 721.1 257 728.8 256.2 729.1 262.9 738.7 262.4 738.6 260 746.4 258.3 751.7 262.6 751.9 265.9 744.2 266.5 744.8 273.7 739.2 276.9 737.3 273.9 Z" id="OH15"/>
<path d="M 774 279.8 769.5 282.1 766.4 288.5 767.8 292.9 765.7 296.9 760.8 298.3 759.2 296.4 754.1 291 747 295.8 742.5 293.9 729.6 293 727 288.1 727.4 282 732 281.7 731.6 274.1 737.3 273.9 739.2 276.9 744.8 273.7 744.2 266.5 751.9 265.9 752.4 271.5 758.6 269.7 762.9 272.2 764.1 278.6 773.6 277.8 774 279.8 Z" id="OH02"/>
<path d="M 749.7 258 751.7 262.6 746.4 258.3 749.7 258 Z" id="OH03"/>
<path d="M 760.1 245.1 752.7 247.3 753.3 252.2 748.1 252.6 749.7 258 746.4 258.3 738.6 260 738.7 262.4 729.1 262.9 728.8 256.2 721.1 257 721 256.3 719.6 248.4 721.2 243.9 738.2 242.8 740.3 245.3 750.6 243.7 749.7 236.8 759.3 233.8 761.5 243.1 760.1 245.1 Z" id="OH04"/>
<path d="M 759.3 233.8 749.7 236.8 750.6 243.7 740.3 245.3 738.2 242.8 721.2 243.9 719.6 248.4 721 256.3 714.3 257.1 711.7 235.5 717.9 234.7 721.5 230 733.8 227.2 736.4 232.3 755.5 228.9 754.9 225.5 761.4 222.7 762.4 230 759.3 233.8 Z" id="OH05"/>
<path d="M 790.5 239.4 788.1 241.4 790.3 247.3 788.5 262.4 782.7 271.2 778.2 271.5 774 276.9 771.3 274.8 773.9 265.9 772.3 261.8 780.2 257.9 777 249 772.5 247.4 770.1 241.9 769.9 240.2 775.7 237.5 775.2 233.2 779.9 228.9 788.5 227.5 789.6 234.3 790.5 239.4 Z" id="OH06"/>
<path d="M 763.8 222.7 771.9 223 772.2 224.9 767.2 227.4 769.9 240.2 770.1 241.9 766.8 244.1 760.1 245.1 761.5 243.1 759.3 233.8 762.4 230 761.4 222.7 763.8 222.7 Z" id="OH07"/>
<path d="M 724.5 274.5 725.6 281.6 719.5 286.3 717.5 287.2 716.5 277.1 714.7 261.3 714.3 257.1 721 256.3 721.1 257 721.8 262.5 725.1 266.3 721.3 266.9 724.5 274.5 Z" id="OH08"/>
<path d="M 754.9 225.5 755.5 228.9 736.4 232.3 733.8 227.2 721.5 230 717.9 234.7 711.7 235.5 710.4 224.8 734.3 220.9 741.4 223.2 745.8 222.9 752.7 227 754.9 225.5 Z" id="OH09"/>
<path d="M 400.1 274.1 441.7 276.3 477.3 277.3 506.4 277.6 506.4 288.2 516 288.2 518.7 291.7 525.9 291.7 525.9 303.4 518.3 300.3 518.4 296.7 506.5 296.8 501.5 300.1 495 299.7 493.6 302.3 493.4 311.3 485.2 311.2 485 321.8 478.8 321.7 478.7 332.3 464.2 332 464.4 319.2 454.1 318.9 452 321 443.8 320.7 443.2 349.2 442.9 349.2 433.8 348.7 420.5 348.2 411.4 347.8 395.6 346.9 395.8 343.6 395.9 341.4 396.2 336.8 396.7 329.9 398 308.8 400.1 274.1 Z" id="KS01"/>
<path d="M 506.4 277.6 523.4 277.6 531.1 281.6 527.2 288.7 533.9 297.6 536.7 297.9 536.6 299.6 531 299 528.3 302.3 528.4 308.2 520.1 308.2 519.8 325.2 528.1 325.2 528.3 316.6 536.7 316.6 537 341.4 537.1 350.2 519.7 350.4 514.1 350.4 511.5 350.4 511.6 322 504 324.1 489.1 323.9 485 321.8 485.2 311.2 493.4 311.3 493.6 302.3 495 299.7 501.5 300.1 506.5 296.8 518.4 296.7 518.3 300.3 525.9 303.4 525.9 291.7 518.7 291.7 516 288.2 506.4 288.2 506.4 277.6 Z" id="KS02"/>
<path d="M 536.7 316.6 528.3 316.6 528.1 325.2 519.8 325.2 520.1 308.2 528.4 308.2 528.3 302.3 531 299 536.6 299.6 536.7 305.4 536.7 316.6 Z" id="KS03"/>
<path d="M 510.8 350.4 507.9 350.4 489.6 350.3 466 349.9 446.7 349.3 443.2 349.2 443.8 320.7 452 321 454.1 318.9 464.4 319.2 464.2 332 478.7 332.3 478.8 321.7 485 321.8 489.1 323.9 504 324.1 511.6 322 511.5 350.4 514.1 350.4 510.8 350.4 Z" id="KS04"/>
<path d="M 835.9 411.9 844.3 415.2 843.3 417.8 834.8 425.6 833.3 425.1 830.9 422.7 823.1 421.5 824.9 410.4 829.3 408.2 835.9 411.9 Z M 816.8 445 813.7 442.3 816.5 435.1 815.3 430.1 826.6 430.2 829.2 425.9 833.1 425.6 834.3 427.4 826.2 433.8 824.4 437.9 816.8 445 Z" fill-rule="evenodd" id="SC01"/>
<path d="M 798.4 423.1 791.5 418.4 788.9 413.9 796.4 404.3 800 394.9 809 394.9 814.5 397 807.3 401.9 807.4 406.8 811.3 409.8 812.2 416.7 805.2 414.7 805.8 420.3 798.4 423.1 Z" id="SC02"/>
<path d="M 762.6 381.8 768.9 379.2 772 378.7 776 386 780.9 384.2 788.3 388 797.2 390.1 800 394.9 796.4 404.3 788.9 413.9 776.6 405.3 768.2 393.5 764.1 392.9 758.7 389.2 762.6 381.8 Z" id="SC03"/>
<path d="M 768.9 379.2 777.2 375 781.2 374.4 788.8 382 788.3 388 780.9 384.2 776 386 772 378.7 768.9 379.2 Z" id="SC04"/>
<path d="M 781.2 374.4 801.9 372.3 806.4 375.2 807.9 379.4 812.5 378.7 818.3 385.6 823 393.1 826.5 395.3 815.9 403.7 814.5 397 809 394.9 800 394.9 797.2 390.1 788.3 388 788.8 382 781.2 374.4 Z" id="SC05"/>
<path d="M 814.7 445.3 811.9 444.9 809.8 438.9 804.7 434.4 801.1 424.9 798.4 423.1 805.8 420.3 805.2 414.7 812.2 416.7 811.3 409.8 807.4 406.8 807.3 401.9 814.5 397 815.9 403.7 826.5 395.3 828.2 398.9 833.6 397 839.6 401.8 835.9 411.9 829.3 408.2 824.9 410.4 823.1 421.5 830.9 422.7 833.3 425.1 833.1 425.6 829.2 425.9 826.6 430.2 815.3 430.1 816.5 435.1 813.7 442.3 816.8 445 814.7 445.3 Z" id="SC06"/>
<path d="M 842.7 385.5 855.8 394.9 852.7 396.7 846.8 405.6 844.3 415.2 835.9 411.9 839.6 401.8 833.6 397 828.2 398.9 826.5 395.3 823 393.1 818.3 385.6 812.5 378.7 829.7 376.1 842.7 385.5 Z" id="SC07"/>
<path d="M 719.5 286.3 727 288.1 729.6 293 742.5 293.9 747 295.8 754.1 291 759.2 296.4 756.8 300 748.4 302.8 745 301.4 741 298.4 732.7 301.1 728.7 305.9 724.1 301.4 721.2 305.1 716.6 307.6 715.3 313.5 708.9 312.7 707.7 308.2 704.4 306.4 712.2 298 718.8 293 717.5 287.2 719.5 286.3 Z" id="KY04"/>
<path d="M 721.2 305.1 724.1 301.4 728.7 305.9 732.7 301.1 741 298.4 745 301.4 741 313.8 742.4 318 737.9 321.9 730.9 323.8 727.5 319.2 720.9 314.9 717.1 316.9 721.2 305.1 Z" id="KY06"/>
<path d="M 760.8 298.3 761 305.2 769.7 315.7 775.5 317.8 769.3 325.3 762.9 329.8 760.6 335.8 755.2 340.2 746.5 344.8 735.3 346.4 721.7 347.5 719.3 341.8 723.3 338 724.7 331.9 721.5 324.7 724.8 322.2 730.9 323.8 737.9 321.9 742.4 318 741 313.8 745 301.4 748.4 302.8 756.8 300 759.2 296.4 760.8 298.3 Z" id="KY05"/>
<path d="M 715.3 313.5 716.6 307.6 721.2 305.1 717.1 316.9 717.8 322 724.8 322.2 721.5 324.7 724.7 331.9 723.3 338 719.3 341.8 721.7 347.5 691.4 350.3 666.7 352.6 663.2 356.2 637.1 358.2 640.6 356.2 641.5 346 645.1 339.9 653.1 343.2 653.4 335.3 660.7 332.7 658.8 328.3 661 324.7 674.5 321.1 671.8 327.1 675.7 333.4 674.2 336.6 677.4 341.8 682.5 340.5 688.4 341.7 688.4 345.5 694 345.8 698.6 342.4 702.3 347 706.5 343.7 705.5 337.2 712.9 334.4 707.9 329.1 710.5 321.6 715.3 313.5 Z" id="KY01"/>
<path d="M 707.7 308.2 708.9 312.7 706.8 317.7 710.5 321.6 707.9 329.1 712.9 334.4 705.5 337.2 706.5 343.7 702.3 347 698.6 342.4 694 345.8 688.4 345.5 688.4 341.7 682.5 340.5 677.4 341.8 674.2 336.6 675.7 333.4 671.8 327.1 674.5 321.1 685.1 320.2 692 312.5 693.8 315.6 699 316.1 699.8 316.2 706.5 313.6 707.7 308.2 Z" id="KY02"/>
<path d="M 704.4 306.4 707.7 308.2 706.5 313.6 699.8 316.2 699.7 316 700 311.9 704.4 306.4 Z" id="KY03"/>
<path d="M 56.6 60.2 63.1 64 66.4 70.6 65.2 77.8 65.5 82.7 64.1 82.8 59.9 84 52.3 79.6 50.8 84.6 45.4 87.3 40.8 85.9 46.6 70.4 47.3 65.3 51 61.1 56.6 60.2 Z" id="OR01"/>
<path d="M 86.9 82.9 92.4 85.6 100.3 85.3 107.1 87.6 117.8 85.9 126.1 87.3 128.7 86.3 162.5 94.4 167.9 105.2 153.8 123.2 148.6 130.7 153.2 137.7 149.2 145.3 139.6 188 110.9 181.5 88 176.1 47.3 164.3 27.8 158.8 22.6 157.3 24.7 152.2 24.9 145.3 29.7 139.8 29.4 134.9 38.5 132.4 45.6 132 46.4 128.6 60.7 132 66.1 124.4 75.2 126.6 82.8 119.9 84.1 114.8 72.1 110.6 79.7 92.7 83.5 92.9 86.9 82.9 Z" id="OR02"/>
<path d="M 65.2 77.8 72.8 82.7 81 81 85.8 81.9 86.9 82.9 83.5 92.9 79.7 92.7 70 89.9 65.5 82.7 65.2 77.8 Z" id="OR03"/>
<path d="M 22.6 157.3 16 155.3 14.3 151.7 17.2 139 16 134.1 26.7 119 29.5 113.6 40.8 85.9 45.4 87.3 43.5 94.9 52.6 97.6 48.5 106 48.8 109.6 56.1 109.4 59.9 112.2 71.8 114.7 71.4 118.2 66.1 124.4 60.7 132 46.4 128.6 45.6 132 38.5 132.4 29.4 134.9 29.7 139.8 24.9 145.3 24.7 152.2 22.6 157.3 Z" id="OR04"/>
<path d="M 64.1 82.8 65.5 82.7 70 89.9 79.7 92.7 72.1 110.6 84.1 114.8 82.8 119.9 75.2 126.6 66.1 124.4 71.4 118.2 71.8 114.7 59.9 112.2 56.1 109.4 48.8 109.6 48.5 106 52.6 97.6 56.1 98.8 58.4 90.6 63.4 86.4 64.1 82.8 Z" id="OR05"/>
<path d="M 45.4 87.3 50.8 84.6 52.3 79.6 59.9 84 64.1 82.8 63.4 86.4 58.4 90.6 56.1 98.8 52.6 97.6 43.5 94.9 45.4 87.3 Z" id="OR06"/>
<path d="M 369.7 199 373.7 151 373.9 151 375.7 130.1 375.8 128.3 402.6 130.4 426.1 131.8 455.4 133.2 485.9 134.1 501.3 134.3 496.3 142.1 503.1 149.5 502.9 184.5 502.9 192.9 503.1 202.1 499.6 211.3 502.9 217.3 498.7 213.4 489.4 208.6 478.6 207.9 476.5 210.2 466.9 204.5 440 203.6 412 202.2 369.7 199 Z" id="SD00"/>
<path d="M 899.5 272.2 887.7 274.6 883.2 258.8 879.9 246.8 879.8 246.5 879.7 246.3 879.5 245 879.7 245 879.9 244.1 880.4 243.2 880.8 242.6 881 242.4 881.5 242 882.3 241.6 882.4 241.5 882.5 241.5 882.6 241.5 882.7 241.5 882.8 241.4 882.9 241.4 883 241.4 883.3 241.3 883.6 241.3 884.1 241.3 885 241.4 885.2 241.5 885.6 241.6 885.3 241.8 884.9 242.3 884.5 244 883.2 246.7 884.4 250.5 887.9 253.4 889.8 259.1 897 264.3 899.5 272.2 Z" id="DE00"/>
<path d="M 708.9 312.7 715.3 313.5 710.5 321.6 706.8 317.7 708.9 312.7 Z M 717.1 316.9 720.9 314.9 727.5 319.2 730.9 323.8 724.8 322.2 717.8 322 717.1 316.9 Z M 699.8 316.2 699 316.1 699.7 316 699.8 316.2 Z" fill-rule="evenodd" id="DC02"/>
<path d="M 859.5 268.5 860.4 267.1 861.3 267.6 862.1 268.1 861.4 271.9 859.3 268.8 859.5 268.5 Z" id="DC98"/>
<path d="M 259.2 559.4 263.5 554.5 269 559.1 259.2 559.4 Z" id="HI01"/>
<path d="M 269 559.1 263.5 554.5 259.2 559.4 256 554.9 261 549.7 269 559.1 Z M 276.7 564 278.2 561.4 286.5 562.8 286.3 565.6 276.7 564 Z M 221.4 541.2 226.1 536.6 231.5 537.1 231.6 543.1 229 545.2 221.4 541.2 Z M 290.3 568.7 300.6 568.2 305.8 571.5 305 575 297.6 576.8 295.6 572 290.3 568.7 Z M 304.7 597.1 309.9 591.2 309.7 584.2 315.4 587.7 322.4 590.1 326.6 593.7 326.7 596.8 333.1 601.8 329.5 606 322.2 608.2 317.5 611.3 314 616.4 308.9 613.8 308.7 606.3 304.7 597.1 Z" fill-rule="evenodd" id="HI02"/>
<path d="M 549.3 492.7 544.9 489.3 545.5 482.8 542.3 474.9 532.4 475 531.4 467.9 521.8 468.1 520.7 456.4 527.2 458.1 530.4 453.3 536.9 455.3 536.5 449.4 527.8 449.5 524.7 448.1 524.5 431.2 536.2 433.7 545.6 437.4 546.4 433.3 549.8 433.5 550.1 446.4 550.6 471 555.8 478 560.1 490.6 549.3 492.7 Z" id="TX01"/>
<path d="M 528.6 524.9 527.8 522.5 527.2 519.4 521.2 519.7 519.2 516.2 519.8 514.3 528.1 511.1 531 519.5 528.6 524.9 Z" id="TX02"/>
<path d="M 500.4 447.6 498.5 447.6 497.1 446.1 496.2 437.4 503.1 439 513.6 437.3 513.5 447.7 505.4 449.2 500.4 447.6 Z" id="TX03"/>
<path d="M 492.2 424.1 504.4 430.4 507.8 427 526.3 423.9 533.5 429.2 541 431.6 546.4 433.3 545.6 437.4 536.2 433.7 524.5 431.2 524.7 448.1 517.5 448.2 518.1 453.6 512.1 451.2 500.3 451.7 500.4 447.6 505.4 449.2 513.5 447.7 513.6 437.3 503.1 439 496.2 437.4 497.1 446.1 493.8 446.9 494.1 437.4 491.9 437.1 492 424.2 492.2 424.1 Z" id="TX04"/>
<path d="M 524.7 448.1 527.8 449.5 536.5 449.4 536.9 455.3 530.4 453.3 527.2 458.1 520.7 456.4 521.8 468.1 509.7 471.2 506 465.3 501.6 463 500.1 458.2 499.2 454.4 498.5 447.6 500.4 447.6 500.3 451.7 512.1 451.2 518.1 453.6 517.5 448.2 524.7 448.1 Z" id="TX05"/>
<path d="M 521.8 468.1 531.4 467.9 532.4 475 534 482.6 531.2 485.1 525.6 481.1 517.9 482.4 511.7 479.3 505.8 479.7 502.2 476.6 496.1 475.8 491.7 478.3 489.6 474.5 484.7 477.3 480.6 470.7 480.8 466.9 485 465.7 484.6 460.4 489.9 452.4 489 454.6 489.5 458 500.1 458.2 501.6 463 506 465.3 509.7 471.2 521.8 468.1 Z" id="TX06"/>
<path d="M 517.3 526.4 522.2 524.7 523.5 526 519.2 527.6 517.3 526.4 Z" id="TX07"/>
<path d="M 528.1 511.1 519.8 514.3 519.2 516.2 515.3 517.8 516.3 524.6 514.3 524.3 514.9 517.3 514.2 503.7 524.4 501.7 534.6 491.8 540.4 493.8 538.4 495 541.1 507.4 534.8 507.6 528.1 511.1 Z" id="TX08"/>
<path d="M 519.2 527.6 523.5 526 524.9 526.7 525.5 529.1 520.7 531.2 519.2 527.6 Z" id="TX09"/>
<path d="M 514.2 503.7 514.9 517.3 514.3 524.3 507.1 528.3 503.4 533.7 497.3 537.5 499 535.4 492.7 528.2 487.1 527.9 483.2 524.5 486.4 518.4 479.8 514.1 477.2 509.1 471.1 511.7 466.7 508.7 475.8 506.8 481.8 510.3 497.9 501.9 511.3 493.2 517.8 493.5 518.2 497.2 513.6 498.7 514.2 503.7 Z" id="TX10"/>
<path d="M 432.8 511 425.3 510.7 426.1 491.5 402.3 490.5 403.2 476.8 372 474.8 372.7 464.3 401.9 466.2 437 468 451.3 468.6 456.3 477.8 460.5 478.3 466.1 483.8 471.4 494.2 460.5 494.1 462 507.2 442.3 506.3 442.2 511.4 432.8 511 Z" id="TX11"/>
<path d="M 472.2 446.8 484.5 447.6 487.1 452.1 483.5 455.1 472.8 453.5 469.1 455.5 469.5 446.7 472.2 446.8 Z" id="TX12"/>
<path d="M 376.4 357.6 401.4 359.3 434 360.9 432 407.9 437.9 412.5 447.4 413.8 461.5 420.9 464 418.7 472.2 422.9 481.3 424.9 481.1 436.5 486.4 436.8 487.5 441.8 475.1 441.6 472.2 444.4 472.5 436.4 451.7 436.7 410.1 435 411.2 412.9 402.7 412.4 403.3 401.9 372.5 399.9 374.2 377.7 375.7 357.5 376.4 357.6 Z" id="TX13"/>
<path d="M 521.2 547.6 515.7 544.2 513.4 538 516 535.7 526.1 533.9 527.2 530.1 531.4 530.2 534.6 534.5 529.3 541.7 521.2 547.6 Z M 542.8 529.8 545.3 528.5 545.1 521.8 550 517.2 549.9 513.3 558.5 513 558.3 517.7 554.2 523.4 556 526.4 542.8 529.8 Z" fill-rule="evenodd" id="TX14"/>
<path d="M 454.4 608.1 460.5 595.8 457.1 584.9 462.7 584.4 463.1 565.4 461 565.4 461.3 552.1 466.4 548.1 460 540.1 468.4 529.4 467 526.6 471.6 522.5 476.6 527.6 471.7 534.6 476.8 540.5 473.7 542.9 477.5 547.7 473.1 551.1 466.5 551 472.2 562.6 472.4 567.1 469.4 569.7 469.1 575.7 466.6 575.6 468 584.6 467.7 599.9 465.4 612.9 462.7 613.1 454.4 608.1 Z" id="TX15"/>
<path d="M 296.4 464.5 295.2 459.3 297.3 459.5 297.5 460.7 297.4 461.5 298.8 463.8 303.2 464.6 303.1 468.9 300 467.8 296.4 464.5 Z" id="TX16"/>
<path d="M 532.4 475 542.3 474.9 545.5 482.8 544.9 489.3 549.3 492.7 540.4 493.8 534.6 491.8 524.4 501.7 514.2 503.7 513.6 498.7 518.2 497.2 517.8 493.5 511.3 493.2 497.9 501.9 481.8 510.3 475.8 506.8 485.6 504.7 484.8 497.9 488.7 495.7 484.5 488.5 481.7 487.5 478 481 484.7 477.3 489.6 474.5 491.7 478.3 496.1 475.8 502.2 476.6 505.8 479.7 511.7 479.3 517.9 482.4 525.6 481.1 531.2 485.1 534 482.6 532.4 475 Z" id="TX17"/>
<path d="M 521.2 519.7 527.2 519.4 527.8 522.5 524.9 526.7 523.5 526 522.2 524.7 521.2 519.7 Z" id="TX18"/>
<path d="M 369.4 437.3 370.2 428.9 372.5 399.9 403.3 401.9 402.7 412.4 411.2 412.9 410.1 435 451.7 436.7 451.5 447.3 448.5 447.3 448.2 457.9 437.3 459.4 437 468 401.9 466.2 372.7 464.3 367.3 463.9 369.4 437.3 Z" id="TX19"/>
<path d="M 457.2 529.6 458.5 531.2 458.5 533.3 458.2 535.1 457.2 529.6 Z" id="TX20"/>
<path d="M 466.7 508.7 471.1 511.7 473 516.7 466.8 526.3 463.6 527.7 458.5 531.2 457.2 529.6 452.6 525.3 448.3 527.5 426.7 526.7 428.1 515.8 432.5 516.1 432.8 511 442.2 511.4 442.3 506.3 462 507.2 466.7 508.7 Z" id="TX21"/>
<path d="M 517.3 526.4 519.2 527.6 520.7 531.2 525.5 529.1 526.3 529.3 527.2 530.1 526.1 533.9 516 535.7 513.4 538 515.7 544.2 521.2 547.6 502.7 558 504.3 544.3 497.3 537.5 503.4 533.7 507.1 528.3 514.3 524.3 516.3 524.6 517.3 526.4 Z" id="TX22"/>
<path d="M 295.2 459.3 295.6 459.3 299.7 459.8 342.4 464 367.2 466 367.3 463.9 372.7 464.3 372 474.8 403.2 476.8 402.3 490.5 426.1 491.5 425.3 510.7 432.8 511 432.5 516.1 428.1 515.8 426.7 526.7 448.3 527.5 452.6 525.3 457.2 529.6 458.2 535.1 458.4 539.4 451.8 536.6 451 565.1 438.4 565.4 438.5 561.2 421.1 560.7 412.3 538.6 404.6 529.6 400.5 527.5 397.9 522 382.5 520.1 371.2 520.8 367 529.7 359.9 538.4 354.2 536.3 347.2 530.4 339.4 526.6 332.3 519.3 329.9 513.1 330.3 506.9 327.2 498.6 322.6 492.4 317.4 489.4 307 476 301.9 472.7 300 467.8 303.1 468.9 303.2 464.6 298.8 463.8 297.4 461.5 297.5 460.7 297.3 459.5 295.2 459.3 Z" id="TX23"/>
<path d="M 487.1 452.1 484.5 447.6 491.9 447.4 494.9 451.5 493.6 450.5 487.1 452.1 Z" id="TX24"/>
<path d="M 489.9 452.4 484.6 460.4 485 465.7 480.8 466.9 477.7 466.1 465.8 472.8 460.5 478.3 456.3 477.8 451.3 468.6 437 468 437.3 459.4 448.2 457.9 448.5 447.3 451.5 447.3 451.7 436.7 472.5 436.4 472.2 444.4 472.2 446.8 469.5 446.7 469.1 455.5 472.8 453.5 483.5 455.1 489.9 452.4 Z" id="TX25"/>
<path d="M 481.3 424.9 489 429.5 492 424.2 491.9 437.1 494.1 437.4 493.8 446.9 491.9 447.4 484.5 447.6 472.2 446.8 472.2 444.4 475.1 441.6 487.5 441.8 486.4 436.8 481.1 436.5 481.3 424.9 Z" id="TX26"/>
<path d="M 479.8 514.1 486.4 518.4 483.2 524.5 487.1 527.9 492.7 528.2 499 535.4 497.3 537.5 504.3 544.3 502.7 558 496.2 559.8 488.5 566.6 482.3 577.7 471.3 577.5 469.1 575.7 469.4 569.7 472.4 567.1 472.2 562.6 466.5 551 473.1 551.1 477.5 547.7 473.7 542.9 476.8 540.5 471.7 534.6 476.6 527.6 471.6 522.5 479.8 514.1 Z" id="TX27"/>
<path d="M 467 526.6 468.4 529.4 460 540.1 466.4 548.1 461.3 552.1 461 565.4 463.1 565.4 462.7 584.4 457.1 584.9 460.5 595.8 454.4 608.1 443.1 603.8 440 593.8 436.3 588.3 436 578.5 433.5 574.5 427.9 570.6 423.7 562.1 421.1 560.7 438.5 561.2 438.4 565.4 451 565.1 451.8 536.6 458.4 539.4 458.2 535.1 458.5 533.3 462.4 528.6 467 526.6 Z" id="TX28"/>
<path d="M 527.8 522.5 528.6 524.9 526.3 529.3 525.5 529.1 524.9 526.7 527.8 522.5 Z" id="TX29"/>
<path d="M 499.2 454.4 500.1 458.2 489.5 458 489 454.6 493.6 450.5 494.9 451.5 499.2 454.4 Z" id="TX30"/>
<path d="M 480.8 466.9 480.6 470.7 484.7 477.3 478 481 481.7 487.5 484.5 488.5 488.7 495.7 484.8 497.9 485.6 504.7 475.8 506.8 466.7 508.7 462 507.2 460.5 494.1 471.4 494.2 466.1 483.8 460.5 478.3 465.8 472.8 477.7 466.1 480.8 466.9 Z" id="TX31"/>
<path d="M 497.1 446.1 498.5 447.6 499.2 454.4 494.9 451.5 491.9 447.4 493.8 446.9 497.1 446.1 Z" id="TX32"/>
<path d="M 489 454.6 489.9 452.4 483.5 455.1 487.1 452.1 493.6 450.5 489 454.6 Z" id="TX33"/>
<path d="M 465.4 612.9 467.7 599.9 468 584.6 466.6 575.6 469.1 575.7 471.3 577.5 482.3 577.7 480.3 583.4 479 598.3 482.5 607.8 482.9 616 477.5 617.5 475.4 614.7 465.4 612.9 Z" id="TX34"/>
<path d="M 477.2 509.1 479.8 514.1 471.6 522.5 467 526.6 462.4 528.6 458.5 533.3 458.5 531.2 463.6 527.7 466.8 526.3 473 516.7 477.2 509.1 Z" id="TX35"/>
<path d="M 549.3 492.7 560.1 490.6 561.7 496.6 557.6 505.9 558.5 513 549.9 513.3 550 517.2 545.1 521.8 545.3 528.5 542.8 529.8 531.4 530.2 527.2 530.1 526.3 529.3 528.6 524.9 531 519.5 528.1 511.1 534.8 507.6 541.1 507.4 538.4 495 540.4 493.8 549.3 492.7 Z" id="TX36"/>
<path d="M 471.1 511.7 477.2 509.1 473 516.7 471.1 511.7 Z" id="TX37"/>
<path d="M 519.2 516.2 521.2 519.7 522.2 524.7 517.3 526.4 516.3 524.6 515.3 517.8 519.2 516.2 Z" id="TX38"/>
<path d="M 638.1 499.4 645.4 510.5 639.5 514.2 648.1 521 643.2 524 647.8 529.1 653.6 530.1 657.7 533.8 651.6 537.1 647.9 533.6 637.3 528.3 632.5 537.7 628.6 533.6 628.7 531.2 620.7 524.1 626.4 520.8 631.5 523.2 635.5 519.1 637.4 513.5 628.1 517.4 629.1 508.8 619.8 513 616.3 509.8 621.1 505 630 503.8 629.5 498.8 638.1 499.4 Z" id="LA01"/>
<path d="M 616.3 509.8 619.8 513 629.1 508.8 628.1 517.4 637.4 513.5 635.5 519.1 631.5 523.2 626.4 520.8 624.8 518.8 617.5 518.9 612.9 521 609.3 515.6 605.2 514.8 599.9 505.5 604.3 505.3 608.1 509.3 614.3 508.8 616.3 509.8 Z" id="LA02"/>
<path d="M 556 526.4 554.2 523.4 558.3 517.7 569.6 517.4 566.9 511.6 571.6 508 583.5 506.6 588.6 506.4 592 511.7 599.9 505.5 605.2 514.8 609.3 515.6 612.9 521 617.5 518.9 624.8 518.8 626.4 520.8 620.7 524.1 628.7 531.2 628.6 533.6 624.6 533.7 619.3 538.7 616.9 536.2 609.9 534.9 610.1 529.6 604.8 528.5 602.2 523.6 596.8 521.6 590.3 524.5 587.9 529.2 580.9 528 569.8 524.1 556 526.4 Z" id="LA03"/>
<path d="M 560.1 490.6 555.8 478 550.6 471 550.1 446.4 567.1 446 587.7 445.5 589.7 445.4 591.2 463 585.5 463.2 584.8 477.1 588.7 482.4 579.8 484.8 572.8 478.1 574.1 470 569 469.1 566.2 473.3 562.8 470.9 559.2 464.3 554.9 461.7 556.1 473.3 562.9 474.4 567.4 485.9 582.7 487 585.5 494.2 589.8 499.4 589.2 504.3 583.5 506.6 571.6 508 566.9 511.6 569.6 517.4 558.3 517.7 558.5 513 557.6 505.9 561.7 496.6 560.1 490.6 Z" id="LA04"/>
<path d="M 638.1 499.4 629.5 498.8 630 503.8 621.1 505 616.3 509.8 614.3 508.8 611.3 508 613 499.7 602.7 499.8 600.1 493.3 588.4 492.1 588.7 482.4 584.8 477.1 585.5 463.2 591.2 463 589.7 445.4 587.7 445.5 602 444.9 608.6 443.2 607.9 444.7 608.6 453.4 612.3 460.2 612.2 465.2 605.6 472.8 603.6 483.7 600.2 487 600.6 493.4 623 492.2 639.9 491.1 638.1 499.4 Z" id="LA05"/>
<path d="M 614.3 508.8 608.1 509.3 604.3 505.3 599.9 505.5 592 511.7 588.6 506.4 583.5 506.6 589.2 504.3 589.8 499.4 585.5 494.2 582.7 487 567.4 485.9 562.9 474.4 556.1 473.3 554.9 461.7 559.2 464.3 562.8 470.9 566.2 473.3 569 469.1 574.1 470 572.8 478.1 579.8 484.8 588.7 482.4 588.4 492.1 600.1 493.3 602.7 499.8 613 499.7 611.3 508 614.3 508.8 Z" id="LA06"/>
<path d="M 781 347.6 779.3 352 777.6 352.6 776 351.6 769.5 357.3 768 354.9 761.2 362.8 757.3 365 755.3 367.1 752.7 369.3 749.9 369.5 746.4 362.2 748.8 359.8 754.6 348.7 750.3 344.4 784.4 339.7 784.4 339.8 783.1 345.5 781 347.6 Z" id="TN01"/>
<path d="M 749.9 369.5 748.6 369.8 745.6 371.8 744.5 372.8 737.4 369 732.7 369.2 742.6 355.4 734.2 350.5 735.3 346.4 746.5 344.8 750.3 344.4 754.6 348.7 748.8 359.8 746.4 362.2 749.9 369.5 Z" id="TN02"/>
<path d="M 744.5 372.8 740.3 378.2 739 385.1 737.9 385.3 735.4 385.6 733.1 385.8 730.6 386.1 729.5 386.3 727.9 386.5 720.9 387.3 716.6 387.9 716.5 387.8 716.6 387.8 716.9 387.5 717.4 387.2 717.7 386.3 718.2 386.2 717.8 383.8 721.2 375.8 727.5 377.7 731.3 370 727.6 366.1 728.3 361.8 724.3 358.4 727.3 352.7 734.2 350.5 742.6 355.4 732.7 369.2 737.4 369 744.5 372.8 Z" id="TN03"/>
<path d="M 727.6 366.1 731.3 370 727.5 377.7 721.2 375.8 717.8 383.8 718.2 386.2 717.7 386.3 717.4 387.2 716.9 387.5 716.6 387.8 716.5 387.8 716.6 387.9 716.3 387.9 716.1 387.9 716 387.9 714 388.1 678.5 391.2 675 391.5 674.7 382 679.4 380.1 687.3 380.7 692.2 378 691.9 365.5 693.6 363.1 700.4 365.9 700.5 372 703.6 373.2 706.6 367.9 711.1 368.2 713.5 374.8 718.8 368.5 727.6 366.1 Z" id="TN04"/>
<path d="M 700.4 365.9 693.6 363.1 691.9 365.5 692.2 378 687.3 380.7 679.4 380.1 674.7 382 676.5 376.5 685.6 371.9 683.6 364.6 689 363.3 695.1 358.9 699.9 362.5 700.4 365.9 Z" id="TN05"/>
<path d="M 721.7 347.5 735.3 346.4 734.2 350.5 727.3 352.7 724.3 358.4 728.3 361.8 727.6 366.1 718.8 368.5 713.5 374.8 711.1 368.2 706.6 367.9 703.6 373.2 700.5 372 700.4 365.9 699.9 362.5 695.1 358.9 689 363.3 688.2 361.4 691.4 350.3 721.7 347.5 Z" id="TN06"/>
<path d="M 663.2 356.2 666.7 352.6 691.4 350.3 688.2 361.4 689 363.3 683.6 364.6 685.6 371.9 676.5 376.5 674.7 382 675 391.5 667.6 392.1 667 385.1 661.6 382.5 662.3 377.9 661.1 368.9 663.4 366.2 663.2 356.2 Z" id="TN07"/>
<path d="M 637.1 358.2 663.2 356.2 663.4 366.2 661.1 368.9 662.3 377.9 661.6 382.5 667 385.1 667.6 392.1 663.4 392.7 647.8 393.9 634 394.9 629.1 382 631.8 370.6 635.2 363.8 634.7 358.4 635.8 358.3 637.1 358.2 Z" id="TN08"/>
<path d="M 629.1 382 634 394.9 632.9 395 625.3 395.5 625.4 383.8 629.1 382 Z" id="TN09"/>
<path d="M 892.4 234.1 891.3 235.3 890 237.2 889.3 234.4 891.2 232.2 892.4 234.1 Z" id="PA02"/>
<path d="M 890.3 202.1 888 206.4 884.9 212.9 879.8 215.8 873.9 214.4 869.7 217.6 866.2 207.3 869.9 204.9 870.9 199.3 875.4 198.3 873.1 190 875.3 189.5 881.9 194.1 884.6 200.3 888.9 200.7 890.3 202.1 Z" id="PA08"/>
<path d="M 884.9 212.9 885.4 221.7 880.4 226.9 875.4 224.2 874.8 220.9 869.7 217.6 873.9 214.4 879.8 215.8 884.9 212.9 Z" id="PA07"/>
<path d="M 890.1 237.6 890.3 237.9 887.9 236.4 889.3 234.4 890 237.2 890.1 237.6 Z" id="PA03"/>
<path d="M 891.4 227 895.6 230 896.3 230.5 892.4 234.1 891.2 232.2 881.5 229.2 880.4 226.9 885.4 221.7 891.4 227 Z" id="PA01"/>
<path d="M 891.2 232.2 889.3 234.4 887.9 236.4 884.3 234.9 875.9 231.7 872 231.7 872.4 225 875.4 224.2 880.4 226.9 881.5 229.2 891.2 232.2 Z" id="PA04"/>
<path d="M 890.3 237.9 885.8 241.7 885.6 241.6 885.2 241.5 885 241.4 884.4 241.3 884.1 241.3 883.6 241.3 883.3 241.3 883 241.4 882.9 241.4 882.8 241.4 882.7 241.5 882.6 241.5 882.5 241.5 882.4 241.5 882.4 241.6 884.3 234.9 887.9 236.4 890.3 237.9 Z" id="PA05"/>
<path d="M 872 231.7 875.9 231.7 884.3 234.9 882.4 241.6 882.3 241.6 882.2 241.6 882 241.7 881.7 241.9 881.5 242 881.3 242.2 881 242.4 880.8 242.6 880.4 243.2 879.9 244.1 879.7 245 879.1 245.1 878.5 245.3 875.2 246 873.2 246.4 874.5 244.6 875.8 235.5 871.2 233 872 231.7 Z" id="PA06"/>
<path d="M 862.3 192.3 873.1 190 875.4 198.3 870.9 199.3 869.9 204.9 866.2 207.3 869.7 217.6 874.8 220.9 875.4 224.2 872.4 225 872 231.7 871.2 233 863.2 236.7 858.5 226.3 854.2 227.9 854.3 227.6 855.6 221.3 849.1 212.4 853.3 207.2 850.9 204.6 848 195.2 862.3 192.3 Z" id="PA09"/>
<path d="M 871.2 233 875.8 235.5 874.5 244.6 873.2 246.4 866.4 247.8 863 248.5 857.7 249.7 857.2 247 857.3 244.4 863.4 242.2 863.2 236.7 871.2 233 Z" id="PA11"/>
<path d="M 854.2 227.9 858.5 226.3 863.2 236.7 863.4 242.2 857.3 244.4 850 244.2 850.2 237.4 855.3 235.5 854.2 227.9 Z" id="PA10"/>
<path d="M 791.1 243.2 790.5 239.4 789.6 234.3 796 233.1 797 237.4 805.1 236.1 804.3 239.2 800.4 241.6 799 245.9 791.1 243.2 Z" id="PA17"/>
<path d="M 799 245.9 800.4 241.6 804.3 239.2 808.5 243.5 807.2 247.3 799 245.9 Z" id="PA12"/>
<path d="M 812.5 258.2 794.1 261.3 791.1 243.2 799 245.9 807.2 247.3 808.5 243.5 804.3 239.2 805.1 236.1 810 238.7 813.2 232.1 820.8 232 818.2 243.4 825.5 243 824.4 247.8 825 255.9 812.5 258.2 Z" id="PA14"/>
<path d="M 854.3 227.6 854.2 227.9 855.3 235.5 850.2 237.4 850 244.2 857.3 244.4 857.2 247 857.7 249.7 841.9 252.7 825 255.9 824.4 247.8 825.5 243 818.2 243.4 820.8 232 832.6 229.3 846.7 227.6 854.3 227.6 Z" id="PA13"/>
<path d="M 797.3 198.2 801.1 204.2 802.6 213.3 798.8 213.8 799.3 224.8 803.1 224.2 805.1 236.1 797 237.4 796 233.1 789.6 234.3 788.5 227.5 785.2 207.4 797.3 198.2 Z" id="PA16"/>
<path d="M 801.1 204.2 831.1 198.7 848 195.2 850.9 204.6 853.3 207.2 849.1 212.4 855.6 221.3 854.3 227.6 846.7 227.6 832.6 229.3 820.8 232 813.2 232.1 810 238.7 805.1 236.1 803.1 224.2 799.3 224.8 798.8 213.8 802.6 213.3 801.1 204.2 Z" id="PA15"/>
<path d="M 859.4 296.7 863 293.3 864.6 284 872.4 285.6 879.6 292.1 880.2 299.7 882.9 302.4 883.4 309 877.3 308.8 871.9 307.6 859.7 300.6 857.7 301.3 857.4 310.4 852.5 307.6 856.5 302.6 855.1 299 859.4 296.7 Z" id="VA01"/>
<path d="M 874.5 324.7 874.6 324.8 871 325.5 871.5 315.9 876.2 309.7 882.4 314.5 886.5 312.8 889.9 312.3 894.2 320.5 874.5 324.7 Z M 891 286.1 898.2 283 893.8 291.2 891.9 305.1 887.7 304.4 887.7 296.8 891 286.1 Z" fill-rule="evenodd" id="VA02"/>
<path d="M 857.4 310.4 857.7 301.3 859.7 300.6 871.9 307.6 876.2 309.7 871.5 315.9 871 325.5 853.3 329 851.9 317.5 857.4 310.4 Z" id="VA04"/>
<path d="M 859.4 296.7 855.1 299 856.5 302.6 852.5 307.6 857.4 310.4 851.9 317.5 853.3 329 821.8 334.8 822 322.5 824.8 321.6 825 311.3 822.5 308.2 826.8 300.8 829.4 300.5 833.1 291.2 850 291.1 859.4 296.7 Z" id="VA05"/>
<path d="M 807.9 310.5 806.2 309.2 813.3 293.8 814.5 285.6 821.5 288.8 824.7 279.6 828.1 279 834.8 267.8 834.5 260.5 845.5 266.6 838.3 277.7 838.4 280.4 835.7 288.2 833.1 291.2 829.4 300.5 826.8 300.8 822.5 308.2 818.4 312.4 816.6 318.8 810 319.8 811.8 314.3 807.9 310.5 Z" id="VA06"/>
<path d="M 864.6 284 863 293.3 859.4 296.7 850 291.1 833.1 291.2 835.7 288.2 838.4 280.4 842 282.3 845.5 277.4 850.5 283.4 856.5 274.7 858.4 275.6 858.5 275.7 857.8 281.1 864.6 284 Z" id="VA07"/>
<path d="M 859.3 268.8 861.4 271.9 860.5 275.9 858.5 275.7 858.4 275.6 858 268.2 859.3 268.8 Z" id="VA08"/>
<path d="M 775.5 317.8 778.6 323.5 784.4 324.6 787.6 320.9 790.6 322.9 795.5 320.7 807.9 310.5 811.8 314.3 810 319.8 816.6 318.8 818.4 312.4 822.5 308.2 825 311.3 824.8 321.6 822 322.5 821.8 334.8 810.8 336.6 784.4 339.7 750.3 344.4 746.5 344.8 755.2 340.2 760.6 335.8 762.9 329.8 769.3 325.3 775.5 317.8 Z" id="VA09"/>
<path d="M 845.5 266.6 846.6 261.7 854.6 266.5 854.9 266.6 852.6 271.3 856.5 274.7 850.5 283.4 845.5 277.4 842 282.3 838.4 280.4 838.3 277.7 845.5 266.6 Z" id="VA10"/>
<path d="M 858.4 275.6 856.5 274.7 852.6 271.3 854.9 266.6 858 268.2 858.4 275.6 Z" id="VA11"/>
<path d="M 142.6 500.6 143.7 510.9 144.9 522.5 146.1 533.4 147.8 549.3 149.1 561.2 150.2 571.1 154.8 571.7 155.9 570.1 158.5 569.6 158.3 572 160.7 573.4 161.2 574.5 166.5 578.5 167.7 581.3 170.1 578.7 171.2 578.4 172.2 573.9 175 571.9 177.4 573.6 178.2 576 180.6 576.9 182.1 579.1 184.3 579.8 186.9 582 188.4 584.2 192.6 589.2 195.9 592.5 196 594.1 201.9 596.9 203.5 596.9 207.3 598.1 207.9 601.2 209.9 605.1 209 608.7 207.6 610.8 206.4 610.6 204.7 607.4 200.6 607.3 198 604.4 198.5 603.3 194.7 601.2 196 598.5 195.4 596.8 192.9 595.2 191.8 593.6 188.9 593.1 188.1 589.8 184.2 584.8 181.8 584.9 179.3 581.1 178.6 582 179.6 584.7 178.5 585.5 176.8 584.1 172.6 586.2 169.7 585.4 167 584.1 165.5 582 156.1 577.4 157.2 575.4 156.1 574.7 153.8 576.2 151.2 576.1 147.9 574.4 143.6 573.7 138.9 574.5 137.7 575 135.8 573.5 131.7 572.5 129.6 571.2 129.6 569.6 125.9 568.1 124.9 567.1 121.1 566.8 119 568.8 119.8 571.5 118.2 573.1 118.7 575.2 115.7 576.1 113.3 575.4 111.6 578 105.7 581.5 102.4 582.5 102 580.1 104 579.2 102.2 577 104.6 572.8 105.2 570.2 104.7 568.6 109.2 566 110.8 567.4 112 566.2 108.6 563.6 104.5 566 102.8 568.4 100.9 570 99.3 574.1 96.9 577.2 93.5 578.6 91.2 581.6 93.5 582.6 95.1 584.5 93.7 586.6 92.3 586.7 90.7 590.3 83.5 593.3 81.2 596.1 79.7 596 79.4 598.1 76.5 599.7 75.1 601.1 71 601.9 67.9 603.8 69.1 604.9 67.8 607.1 61.5 607.9 60.6 607.2 56.5 609.9 51.5 609.9 50.6 609.4 48.2 611.9 43.8 612.1 43.2 610.4 48.3 606.3 50.9 605 53.7 604.7 54.8 605.3 55.6 607.4 57.3 606.5 58.8 603 61.8 601.2 67.8 598.7 70.1 595.9 73.5 593.9 73.5 592.6 75.8 585.7 77.7 584.2 76.8 582.9 73.1 584.2 70.3 581.6 69.8 584.7 68.3 585.2 67.4 582.4 66 580.4 65 581.5 62.6 578.9 58.7 580.3 56.2 581.8 55.8 580.7 56.8 578 56.2 575.2 58.2 573.5 56.6 567 55.5 568.5 51.2 569.1 49 568.5 47 563.6 45 560.4 47.5 558.5 46.9 556.2 45 555.4 44.4 553.2 44.7 548.7 46.7 548.9 46.6 547.1 49.9 544 51.8 543.4 52.6 540.3 55.1 538.2 56.2 538.3 59.7 541 63 538.3 67.9 538.8 69.9 536.1 69.9 532.7 68.5 529.7 70.2 530 71.2 527.4 70.2 526.4 64.5 528.6 57.7 526.7 55.2 527.1 51.1 524.6 51.1 522 50.4 520 52.4 518.5 48.9 516.3 47.1 514.1 47.8 512.9 50.3 512.3 57.6 509.7 62.2 509 64.3 510.4 63.1 512.6 63.3 514 66.9 514.6 70.1 515.9 71.4 514.3 73 513.8 70.8 511.9 69 507.7 70.1 507.6 71.1 509.9 72.4 508 71.8 507 69.5 507.1 65.9 505.1 65.9 502.3 65.3 500.1 62.5 495.7 61 494.5 59.2 491.9 60.9 490.3 61.7 487.5 63.7 488.3 68.1 488.7 70.5 487.5 72 486.1 73.6 482.1 76.4 479.1 78 478.2 80.4 478.8 82.2 478 85.3 475.5 87.2 476.1 90.1 475.9 95 472.5 97.6 474.9 99 474.2 100.3 475.8 100.1 477.2 104.1 476.8 107.1 477.8 106.4 480.1 108.4 480.5 110 482 112 481.2 115.1 481 119.4 482.7 120.5 483.8 126 484.1 128.9 485.7 133.8 483.7 139.7 487.3 141.2 487.6 142.6 500.6 Z M 197.9 613.9 197 613.9 194.3 610.9 193.5 606.5 192.4 605.9 192.1 604.1 190.8 603.7 189.9 600.3 192.1 600.1 193.8 602.1 196.7 604 198.3 606.7 200.1 608 201.3 612 200.5 613.1 198.8 612.6 197.1 610.9 196.2 612 197.9 613.9 Z M 94 591.8 95.9 589.8 99.4 587 100.3 591.4 98 591.6 96.4 592.8 94 591.8 Z M 86.9 597.5 87.9 596.2 89.9 595 91.1 595.2 92.4 593.2 93.5 594.3 95.7 592.8 98.7 593.3 98.7 597.9 95.7 599.1 95.8 600.3 92.7 601.2 90.4 603.3 87.9 600.8 88 599.1 86.9 597.5 Z M 35 560.9 37.2 561.4 40.8 560.9 42.7 562.4 42.2 565.8 39.6 565.9 37.7 565.1 35.9 563.2 35 560.9 Z M 185.2 597 186.8 595.8 187.2 594.1 191.7 594.5 194.6 597.1 193.5 598.2 188.4 599.9 188.8 603 187.5 603.5 186.7 601 187.3 600 185.2 597 Z M 179.8 584 182.1 585.3 183.9 585.8 183.6 587.1 186 589.7 186.8 591.8 184.2 595.5 183.3 593.7 183.9 592.1 182 589.3 181.1 586.2 179.8 584 Z M 173 588.4 176 585.6 178 586.6 180.5 586.9 182 591.5 181.2 592.1 178.3 590.7 178.6 592.9 177.4 593.4 175.3 592 173 588.4 Z M 178.2 593.6 178.8 592.7 179 591.6 181.4 592.5 182.4 593.8 184.4 598.1 185.2 602.5 183.8 602 182.6 599.9 180.5 597.9 180 594.7 178.2 593.6 Z M 32.7 612.6 35.2 610.8 38.9 610 40.7 610.6 41.3 613.7 39.6 614.1 37.1 613.4 34.8 614.6 32.8 614.1 32.7 612.6 Z M 14.8 619.2 18.8 618.9 20.2 617.1 19.8 615.6 21.5 614.9 24 616.7 23.8 618.4 21.4 619.5 19.3 619.3 15.8 620 14.8 619.2 Z M 7 621.2 8.7 620.5 9.6 619 12.3 617.3 14.7 616.8 15.1 618.6 12.1 619.3 11 620.4 7 621.2 Z M 27.3 527 28.9 526 31 527.6 33.7 527.5 33.9 529.4 35.7 531.3 38.5 532.8 37.4 533.9 35.5 533.2 34.4 534 32.2 531.6 31.6 529.9 29.8 528.6 28.2 529.1 27.3 527 Z" fill-rule="evenodd" id="AK99"/>
<path d="M 713.7 485.1 683.6 487.9 683.4 491.5 688.7 496.3 689.6 501 686.8 504.9 681.9 505.1 674.5 498.9 674.4 503.6 668.5 504.3 667.3 494.3 671.8 492.6 671.1 485.4 674.6 485.1 679.5 481.1 685.3 481.4 700.1 479.9 700.8 473.5 706.9 472.8 711.9 470.1 726.7 468.5 732.2 464.4 734.5 469.5 733.8 476.3 736.9 482 713.7 485.1 Z" id="AL01"/>
<path d="M 732.7 446.2 732.2 464.4 726.7 468.5 711.9 470.1 706.9 472.8 700.8 473.5 700.1 479.9 685.3 481.4 679.5 481.1 674.6 485.1 671.1 485.4 671.8 492.6 667.3 494.3 664.5 472.5 672.2 471.9 676.3 475.8 682.8 471.8 684.2 467.7 695.9 466.6 695.6 463.4 705.8 462.4 703 453.4 707.9 449.3 711.9 451 714.9 448.6 716.5 446.3 726.1 448 732.6 446.1 732.7 446.2 Z" id="AL02"/>
<path d="M 721.2 413.7 723.6 422.5 728 438 732.6 446.1 726.1 448 716.5 446.3 714.9 448.6 711.8 442.6 710.9 434.2 705.5 434.8 702.6 425.4 699 424.3 698 419.5 702.4 415.9 704.3 408.9 711.4 407.5 717 399 717 399.1 717.1 399.1 721.2 413.7 Z" id="AL03"/>
<path d="M 675 391.5 678.5 391.2 677.5 395.8 677.9 408.2 696.6 406.5 699.2 402 704.4 398.5 707.5 401.1 714.8 391.1 717 399 711.4 407.5 704.3 408.9 702.4 415.9 698 419.5 694.2 418 689 422.2 682.7 429.1 678.4 439.2 674.7 439.8 673.4 427.6 664.8 428.1 665.6 395 663.4 392.7 667.6 392.1 675 391.5 Z" id="AL04"/>
<path d="M 678.5 391.2 714 388.1 714.8 391.1 707.5 401.1 704.4 398.5 699.2 402 696.6 406.5 677.9 408.2 677.5 395.8 678.5 391.2 Z" id="AL05"/>
<path d="M 714.9 448.6 711.9 451 707.9 449.3 703 453.4 695.9 452.8 691.3 442.6 683.2 442.5 685.4 436 691.1 432.7 697 423.7 689 422.2 694.2 418 698 419.5 699 424.3 702.6 425.4 705.5 434.8 710.9 434.2 711.8 442.6 714.9 448.6 Z" id="AL06"/>
<path d="M 703 453.4 705.8 462.4 695.6 463.4 695.9 466.6 684.2 467.7 682.8 471.8 676.3 475.8 672.2 471.9 664.5 472.5 664 467.8 664.7 434 664.8 428.1 673.4 427.6 674.7 439.8 678.4 439.2 682.7 429.1 689 422.2 697 423.7 691.1 432.7 685.4 436 683.2 442.5 691.3 442.6 695.9 452.8 703 453.4 Z" id="AL07"/>
<path d="M 631.8 370.6 629.1 382 625.4 383.8 625.3 395.5 622.5 398.9 619.2 400.7 618.1 406.2 615.6 412.4 614.5 412.3 611.6 414.8 613.4 415.9 610.8 417.7 612.3 418.2 610.3 420.5 606.2 429 609.5 434.1 608.1 437.6 609.9 437.8 608 441.6 608.6 443.2 602 444.9 601.3 426.2 590.8 426.4 590.9 419.1 595.6 415.5 595.4 409.5 586.8 409.6 586.1 406.1 587.7 397 599.8 394.6 599.9 387.6 592.1 380 572.7 380.3 569.9 380.4 569.7 370.9 562.9 371 562.8 361.8 572.7 361.5 604.3 360.2 623 359.1 624.7 364.5 619.4 371.5 631.8 370.6 Z" id="AR01"/>
<path d="M 572.7 380.3 592.1 380 599.9 387.6 599.8 394.6 587.7 397 586.1 406.1 581.7 410.8 574 409.8 570.3 403.4 563.6 401.1 572.2 393.6 572.7 380.3 Z" id="AR02"/>
<path d="M 541.3 392.6 541.3 389.1 537.3 362.4 562.8 361.8 562.9 371 560.1 372 558.9 379.8 551.3 379.7 548.3 387.7 548.2 393.3 541.3 392.6 Z" id="AR03"/>
<path d="M 541 431.6 541.3 392.6 548.2 393.3 548.3 387.7 551.3 379.7 558.9 379.8 560.1 372 562.9 371 569.7 370.9 569.9 380.4 572.7 380.3 572.2 393.6 563.6 401.1 570.3 403.4 574 409.8 581.7 410.8 586.1 406.1 586.8 409.6 595.4 409.5 595.6 415.5 590.9 419.1 590.8 426.4 601.3 426.2 602 444.9 587.7 445.5 567.1 446 550.1 446.4 549.8 433.5 546.4 433.3 541 431.6 Z" id="AR04"/>
<path d="M 924.1 102.8 922.9 109.6 925.1 115.6 918.9 123.2 919.6 125.2 918.8 135.9 918.3 137.8 917.6 140.2 919.5 152.2 919.8 154 918.7 155.5 918.7 157.3 921.2 160.5 914.2 162 909.5 163 907.3 163.5 907.1 163.6 906.6 161.4 906 158.9 903.2 145.3 897 133.7 897.8 127.8 894.5 120.1 893.1 110.7 924.1 102.8 Z" id="VT00"/>
<path d="M 650.3 242.9 649.6 236.6 653.9 238.2 653.2 231.4 655.2 231.2 658.5 229.2 658.9 228.4 660.3 226.2 660.6 227 657.7 234.3 658.6 242 650.3 242.9 Z" id="IL01"/>
<path d="M 650.3 242.9 658.6 242 657.7 234.3 660.6 227 662.1 229.5 663.2 242.6 665.3 267.1 665.5 269.3 658 269.4 657.7 263.8 648.1 264.7 649.3 259.3 645.4 257.5 644.3 245.6 650.3 242.9 Z" id="IL02"/>
<path d="M 654.9 223.1 658.7 224.9 656.3 225.1 654.6 224.8 651.4 227.9 648.6 226.7 654.9 223.1 Z" id="IL03"/>
<path d="M 658.9 228.4 658.5 229.2 654.6 224.8 656.3 225.1 658.9 228.4 Z" id="IL04"/>
<path d="M 658.7 224.9 654.9 223.1 648.5 219.9 659.5 223.8 660 225.1 658.7 224.9 Z" id="IL05"/>
<path d="M 658.5 229.2 655.2 231.2 651.4 227.9 654.6 224.8 658.5 229.2 Z" id="IL06"/>
<path d="M 660.3 226.2 658.9 228.4 656.3 225.1 658.7 224.9 660 225.1 660.3 226.2 Z" id="IL07"/>
<path d="M 654.9 223.1 648.6 226.7 646.4 220 648.5 219.9 654.9 223.1 Z" id="IL08"/>
<path d="M 659.5 223.8 648.5 219.9 646.4 220 650.7 217 654 220.5 658.3 220.8 659.5 223.8 Z" id="IL09"/>
<path d="M 643.7 212 655.5 211.1 655.3 215.7 658.3 220.8 654 220.5 650.7 217 643.9 215 643.7 212 Z" id="IL10"/>
<path d="M 655.2 231.2 653.2 231.4 642.7 228.8 640.2 222.6 637.8 216.5 643.9 215 650.7 217 646.4 220 648.6 226.7 651.4 227.9 655.2 231.2 Z" id="IL11"/>
<path d="M 661 324.7 658.8 328.3 660.7 332.7 653.4 335.3 653.1 343.2 645.1 339.9 641.5 346 638.6 346.1 633.8 339.3 635.5 336.5 633.3 329.6 617.4 318.6 616.4 316.8 616.8 313.4 618 310 622.9 306.7 630 304.1 638.5 303.7 644.4 299 643.8 291.6 650 291.2 649.6 285.9 655.5 283.7 666.8 283.4 666 286.9 668.9 300 660.5 319.1 661 324.7 Z" id="IL12"/>
<path d="M 622.9 306.7 618 310 620.2 303.3 618.7 301.4 618.5 286 624.7 285.5 630.2 276.6 653.1 267.7 649.9 275 634.9 277.8 626.8 285.4 627.7 298.1 623.4 298.3 622.9 306.7 Z" id="IL13"/>
<path d="M 653.2 231.4 653.9 238.2 649.6 236.6 643.5 237.2 643.9 240.9 629.5 242.9 629.1 237.3 632.9 233.8 637 233.5 636.3 225.1 640.2 222.6 642.7 228.8 653.2 231.4 Z" id="IL14"/>
<path d="M 648.1 264.7 657.7 263.8 658 269.4 665.5 269.3 666.8 283.4 655.5 283.7 649.6 285.9 650 291.2 643.8 291.6 644.4 299 638.5 303.7 630 304.1 622.9 306.7 623.4 298.3 627.7 298.1 626.8 285.4 634.9 277.8 649.9 275 653.1 267.7 630.2 276.6 624.7 285.5 618.5 286 618.7 301.4 609.9 300.8 608.3 293.1 595.9 282.2 592.8 270 594.9 266.2 595 261 599.2 259.1 601.9 248.7 599.3 243.1 606.6 242.8 607.1 253.3 611.2 253.2 611.6 261.6 625 263.3 625.3 266.1 637.7 266.2 648.1 264.7 Z" id="IL15"/>
<path d="M 633.2 212.7 634.5 212.7 643.7 212 643.9 215 637.8 216.5 640.2 222.6 636.3 225.1 637 233.5 632.9 233.8 629.1 237.3 629.5 242.9 643.9 240.9 643.5 237.2 649.6 236.6 650.3 242.9 644.3 245.6 645.4 257.5 649.3 259.3 648.1 264.7 637.7 266.2 637.3 261.9 629.9 263.3 626.3 262.2 625.9 256.4 619.6 254.8 617.1 246.5 610.9 246.8 610.6 240 614.8 236.1 624.7 235.4 622.7 220.7 611.6 221.5 608.6 217.1 605.4 214.2 608.4 214.1 609.2 214.1 633.1 212.7 633.2 212.7 Z" id="IL16"/>
<path d="M 637.7 266.2 625.3 266.1 625 263.3 611.6 261.6 611.2 253.2 607.1 253.3 606.6 242.8 599.3 243.1 612 236.2 614.5 230.8 614.4 223.2 611.6 221.5 622.7 220.7 624.7 235.4 614.8 236.1 610.6 240 610.9 246.8 617.1 246.5 619.6 254.8 625.9 256.4 626.3 262.2 629.9 263.3 637.3 261.9 637.7 266.2 Z" id="IL17"/>
<path d="M 663.2 242.6 662.1 229.5 669.8 230.2 674.6 227.1 676.6 226.9 677.1 232 673.1 233.1 673.7 239.9 670 239.1 663.2 242.6 Z" id="IN01"/>
<path d="M 673.7 239.9 673.1 233.1 677.1 232 676.6 226.9 695.1 225 696.1 232.8 694.7 239.2 697.4 243.2 698.4 251.6 694.6 254.1 685.8 255.2 686.6 250.4 682.8 247 674.5 247.7 673.7 239.9 Z" id="IN02"/>
<path d="M 711.7 235.5 714.3 257.1 714.7 261.3 707.3 262.2 706.7 257.4 702.6 257.8 701.8 251.2 698.4 251.6 697.4 243.2 694.7 239.2 696.1 232.8 695.1 225 710.3 223.3 710.4 224.8 711.7 235.5 Z" id="IN03"/>
<path d="M 665.3 267.1 663.2 242.6 670 239.1 673.7 239.9 674.5 247.7 682.8 247 686.6 250.4 685.8 255.2 688.1 258.8 689.3 270.3 688.3 275.4 690.6 284.4 683.6 285 683.3 282 676.3 282.6 675.4 273.1 671.2 265.7 665.3 267.1 Z" id="IN04"/>
<path d="M 685.8 255.2 694.6 254.1 698.4 251.6 701.8 251.2 702.6 257.8 706.7 257.4 707.3 262.2 701 265.4 701.4 268.5 694.9 269.7 689.3 270.3 688.1 258.8 685.8 255.2 Z" id="IN05"/>
<path d="M 714.7 261.3 716.5 277.1 707.6 278.1 701.7 280.5 701.5 288.4 694.2 288.6 690.6 284.4 688.3 275.4 695.1 274.5 694.9 269.7 701.4 268.5 701 265.4 707.3 262.2 714.7 261.3 Z" id="IN06"/>
<path d="M 688.3 275.4 689.3 270.3 694.9 269.7 695.1 274.5 688.3 275.4 Z" id="IN07"/>
<path d="M 674.5 321.1 661 324.7 660.5 319.1 668.9 300 666 286.9 666.8 283.4 665.5 269.3 665.3 267.1 671.2 265.7 675.4 273.1 676.3 282.6 683.3 282 683.6 285 684.2 301 691.2 300.3 692 312.5 685.1 320.2 674.5 321.1 Z" id="IN08"/>
<path d="M 716.5 277.1 717.5 287.2 718.8 293 712.2 298 704.4 306.4 700 311.9 699.7 316 699 316.1 693.8 315.6 692 312.5 691.2 300.3 684.2 301 683.6 285 690.6 284.4 694.2 288.6 701.5 288.4 701.7 280.5 707.6 278.1 716.5 277.1 Z" id="IN09"/>
<path d="M 599.3 243.1 601.9 248.7 599.2 259.1 595 261 594.9 266.2 588.3 261.1 580.1 261.7 579.6 248.1 550.6 249 550.4 240.6 557 240.4 558.1 231.9 568.4 231.6 568.9 240.1 577.1 239.8 576.8 231.3 593.4 230.6 592.9 220 605.3 219.4 608.6 217.1 611.6 221.5 614.4 223.2 614.5 230.8 612 236.2 599.3 243.1 Z" id="IA01"/>
<path d="M 594 190.8 597.1 196.6 595.2 199.6 597.9 209.1 603.8 211.1 605.4 214.2 608.6 217.1 605.3 219.4 592.9 220 593.4 230.6 576.8 231.3 577.1 239.8 568.9 240.1 568.4 231.6 568.1 223.2 555.8 223.6 554.9 215.1 563.3 214.9 563 206.4 554.7 206.7 554.4 192.4 594 190.8 Z" id="IA02"/>
<path d="M 558.1 231.9 557 240.4 550.4 240.6 550.6 249 579.6 248.1 580.1 261.7 560.5 262.9 536.3 263.6 522.2 263.6 521.9 249.5 526 249.5 525.9 241.1 534.1 241.1 535.1 224 543.3 223.8 543.5 232.2 558.1 231.9 Z" id="IA03"/>
<path d="M 513.8 258.6 512.2 248.8 511.9 244 509 240.2 508.5 230.1 504.6 225.2 502.9 217.3 499.6 211.3 503.1 202.1 502.9 192.9 520.6 192.9 554.4 192.4 554.7 206.7 563 206.4 563.3 214.9 554.9 215.1 555.8 223.6 568.1 223.2 568.4 231.6 558.1 231.9 543.5 232.2 543.3 223.8 535.1 224 534.1 241.1 525.9 241.1 526 249.5 521.9 249.5 522.2 263.6 515.3 263.5 513.8 258.6 Z" id="IA04"/>
<path d="M 191 407.2 195 395.7 205.3 398 205.9 404.4 210.2 406.8 211.6 412.2 203 410.9 199 409.8 193 409.5 191 407.2 Z" id="AZ01"/>
<path d="M 256.7 377.2 252 410.7 246.1 409.8 242.7 412.4 240.8 426.1 237.2 427.2 230.6 419.9 227.6 427.1 221.5 425.5 220.7 430.7 202.5 428 202.9 425.9 192.7 423.7 186.7 419.7 187 410.2 189.1 412.5 194.1 413.7 201.4 419.1 203 410.9 211.6 412.2 210.2 406.8 205.9 404.4 205.3 398 195 395.7 189 398.3 186.2 396.9 180.3 393.9 168.8 391.8 175.4 356.1 169.9 355.2 162.8 348.2 165.9 346.4 175.5 349.9 178.4 341.9 191.4 338.3 195 326.8 191.4 322.1 218.1 326.6 262.7 333.4 256.7 377.2 Z" id="AZ02"/>
<path d="M 191 407.2 193 409.5 189.1 412.5 187 410.2 186.6 407.4 189 406.7 191 407.2 Z" id="AZ03"/>
<path d="M 193 409.5 199 409.8 194.1 413.7 189.1 412.5 193 409.5 Z" id="AZ04"/>
<path d="M 199 409.8 203 410.9 201.4 419.1 194.1 413.7 199 409.8 Z" id="AZ05"/>
<path d="M 252 410.7 247.2 445 243.9 469.1 234.9 467.8 235.1 464.6 216.7 464 216.9 455.4 204.6 453.6 210.2 444.4 209.3 441.2 202.2 437 195.9 429.7 192.7 423.7 202.9 425.9 202.5 428 220.7 430.7 221.5 425.5 227.6 427.1 230.6 419.9 237.2 427.2 240.8 426.1 242.7 412.4 246.1 409.8 252 410.7 Z" id="AZ06"/>
<path d="M 135.7 417 139.7 416.7 138.8 419.8 147.2 421.6 157.8 420 163.4 421.1 164.5 415 171.4 411.8 174.9 414.6 184.5 414.5 186.6 407.4 187 410.2 186.7 419.7 192.7 423.7 195.9 429.7 202.2 437 209.3 441.2 210.2 444.4 204.6 453.6 216.9 455.4 216.7 464 235.1 464.6 234.9 467.8 202.8 463 163.5 440.3 132.8 421.9 135.7 417 Z" id="AZ07"/>
<path d="M 195 395.7 191 407.2 189 406.7 186.2 396.9 189 398.3 195 395.7 Z" id="AZ08"/>
<path d="M 150.5 349.1 151.2 337.5 158.6 337 162.1 340.7 165 337 168.5 317.8 191.4 322.1 195 326.8 191.4 338.3 178.4 341.9 175.5 349.9 165.9 346.4 162.8 348.2 169.9 355.2 175.4 356.1 168.8 391.8 180.3 393.9 186.2 396.9 189 406.7 186.6 407.4 184.5 414.5 174.9 414.6 171.4 411.8 164.5 415 163.4 421.1 157.8 420 147.2 421.6 138.8 419.8 139.7 416.7 141.3 410.7 137.8 408 139 400.6 143.5 398 145.1 389.1 148.2 385.2 154.5 381.6 151.3 377.3 148.2 363.2 150.2 359.6 150.5 349.1 Z" id="AZ09"/>
<path d="M 162.5 94.4 162.8 83.8 171.2 46.4 176.4 24 191.8 27.2 186.7 51.1 190.5 61.3 188.9 64.6 194.5 70.2 199.2 81.7 208.2 87.9 203.9 96.4 203.2 106 200.1 107.7 199.1 112.8 194.7 114.9 197.2 118.9 194.4 121.9 193.1 128.2 186.6 129.7 182.1 133.4 181.1 139.1 182.6 142.8 179.3 148.7 175.3 149.1 172 153 165.8 154.5 162 148.5 159.3 153.3 164.7 159.7 163.1 168.6 171.7 171.9 170.7 175.7 177.9 177.2 174.2 195.5 139.6 188 149.2 145.3 153.2 137.7 148.6 130.7 153.8 123.2 167.9 105.2 162.5 94.4 Z" id="ID01"/>
<path d="M 253.4 148.9 250.5 168.1 248 183.7 245.4 199.5 244.4 206 244.1 208 224.3 204.7 191.5 199 174.2 195.5 177.9 177.2 170.7 175.7 171.7 171.9 163.1 168.6 164.7 159.7 159.3 153.3 162 148.5 165.8 154.5 172 153 175.3 149.1 179.3 148.7 182.6 142.8 181.1 139.1 182.1 133.4 186.6 129.7 193.1 128.2 194.4 121.9 197.2 118.9 194.7 114.9 199.1 112.8 203.7 115.5 208.7 112.2 211.9 114.2 211.5 118.9 215.4 128.2 214.5 132.7 219.8 137 220.3 144 244.7 145.5 249 141.5 253.4 148.9 Z" id="ID02"/>
<path d="M 949 144.9 942.6 139.4 939.6 129.2 942.6 127.9 944.1 121.1 953.4 122.5 954 113.3 956.8 109.7 964.5 107.9 969.2 109.4 968.4 117.3 964.3 117.7 960.5 124.6 953.7 125.7 954.3 130.8 950.3 137.4 949 144.9 Z" id="ME01"/>
<path d="M 939.6 129.2 936.1 117.8 928.5 94.3 933 93.2 933.8 85.4 938.2 77.2 936.5 74.4 936.3 66.7 938.1 64 937.3 57.3 944.5 36.2 947.9 36.6 951.5 41.2 959.9 34.2 969.8 38.5 979.4 70.4 985.5 70.4 987.9 78.7 993.5 79.1 999 86.3 996.7 91.1 991.4 95.6 982.8 99.8 982.2 104.5 976.1 106.7 968.6 105.2 969.2 109.4 964.5 107.9 956.8 109.7 954 113.3 953.4 122.5 944.1 121.1 942.6 127.9 939.6 129.2 Z" id="ME02"/>
<path d="M 879.5 245 879.7 246.3 879.8 246.5 879.9 246.8 883.2 258.8 887.7 274.6 899.5 272.2 898.2 283 891 286.1 875.9 276.6 874.4 270.3 876.7 268.4 874.4 256.1 871.3 256.3 867 254.7 865.4 251.4 864.4 250.8 863.8 249.6 863.8 249.1 863.1 248.5 873.2 246.4 875.2 246 878.5 245.3 879.5 245 Z" id="MD01"/>
<path d="M 863.1 248.5 863.8 249.1 863.8 249.6 864.4 250.8 865.4 251.4 867 254.7 871.3 256.3 870.1 258.8 865 260.3 856.7 257 853.8 250.5 857.9 249.6 863.1 248.5 Z" id="MD02"/>
<path d="M 856.7 257 865 260.3 868.6 260.1 870.5 266.8 863.6 263.7 861.1 263.2 857.1 260.3 856.7 257 Z" id="MD03"/>
<path d="M 861.4 271.9 862.1 268.1 861.3 267.6 861.1 263.2 863.6 263.7 863.8 271.1 861.4 271.9 Z" id="MD04"/>
<path d="M 860.5 275.9 861.4 271.9 863.8 271.1 863.6 263.7 870.5 266.8 870.5 271.2 876.2 283 867.6 283.9 860.5 275.9 Z" id="MD05"/>
<path d="M 846.6 261.7 842.2 255.7 836.7 254.4 832.1 259.7 825.8 258.5 815.7 270 814.7 269 812.5 258.2 825 255.9 841.9 252.7 853.8 250.5 856.7 257 857.1 260.3 854.6 266.5 846.6 261.7 Z" id="MD06"/>
<path d="M 865 260.3 870.1 258.8 868.6 260.1 865 260.3 Z" id="MD07"/>
<path d="M 861.3 267.6 860.4 267.1 859.5 268.5 859.3 268.8 858 268.2 854.9 266.6 854.6 266.5 857.1 260.3 861.1 263.2 861.3 267.6 Z" id="MD08"/>
<path d="M 907.5 180.8 907.3 163.5 909.5 163 914.2 162 915.3 169.4 919.1 172.1 929.1 167.6 935.5 171.1 936 174.3 920.1 178.9 913.7 179.5 907.5 180.8 Z" id="MA01"/>
<path d="M 940.4 173.4 940.1 173.5 936.9 174.5 936 174.3 935.5 171.1 929.1 167.6 919.1 172.1 915.3 169.4 914.2 162 921.2 160.5 927.2 159.2 931.2 163.3 940.2 165.5 941.8 166.9 940.4 173.4 Z" id="MA02"/>
<path d="M 927.2 159.2 941.3 156.1 942.8 154.3 942.5 153.4 944.5 151.8 945 154.2 941.8 156.9 942.8 161.5 940.2 165.5 931.2 163.3 927.2 159.2 Z" id="MA03"/>
<path d="M 950.8 180.9 949.3 179.5 948.6 178.8 944 172.3 940.4 173.4 941.8 166.9 945.5 163.4 946.6 164 944.8 169.7 949.5 171.6 953.7 176.1 950.8 180.9 Z" id="MA04"/>
<path d="M 941.8 166.9 940.2 165.5 942.8 161.5 948 160.9 948.3 162.1 948 161.8 947.9 161.7 946.9 161.9 946.5 162.1 945.5 163.4 941.8 166.9 Z" id="MA05"/>
<path d="M 942.8 161.5 941.8 156.9 945 154.2 944.5 151.8 947 149.9 948.6 151 948.8 152.4 950.4 154.5 952.3 155.3 948 160.9 942.8 161.5 Z" id="MA06"/>
<path d="M 946.6 164 945.5 163.4 946.5 162.1 947 163.2 947.6 163 947.5 163.2 946.6 164 Z" id="MA07"/>
<path d="M 949.5 171.6 944.8 169.7 946.6 164 947.5 163.2 951.7 164.2 949.5 171.6 Z" id="MA08"/>
<path d="M 951.7 183.3 950.8 180.9 953.7 176.1 949.5 171.6 951.7 164.2 956.3 167.3 959.7 174.2 951.7 183.3 Z" id="MA09"/>
<path d="M 244.1 208 240.2 232 241.4 232.2 243.4 232.5 241 236.1 233.1 235.5 232.1 238.4 225 237.2 225.4 229.6 221.4 226.7 215.6 225.7 209.1 226.7 187 222.6 191.5 199 224.3 204.7 244.1 208 Z" id="UT01"/>
<path d="M 176.2 277.9 179.5 261.2 187 222.6 209.1 226.7 215.6 225.7 221.4 226.7 225.4 229.6 225 237.2 224.4 237.1 218.4 237.5 216.1 251.1 217.7 255.2 211 262.6 213 268.5 216.1 269.4 215.1 275.8 228.1 278.3 225.9 291.1 249.6 294.7 251 302.2 243.9 308.8 241.1 308.4 232 320.4 226.4 325.2 218.1 326.6 191.4 322.1 168.5 317.8 176.2 277.9 Z" id="UT02"/>
<path d="M 243.4 232.5 245.8 232.9 275.9 237.3 269.7 281.9 266.6 305.4 262.7 333.4 218.1 326.6 226.4 325.2 232 320.4 241.1 308.4 243.9 308.8 251 302.2 249.6 294.7 225.9 291.1 228.1 278.3 232.1 259.8 239.1 260.9 228.9 250.7 224.7 250.1 222.6 242.6 224.4 237.1 225 237.2 232.1 238.4 233.1 235.5 241 236.1 243.4 232.5 Z" id="UT03"/>
<path d="M 228.1 278.3 215.1 275.8 216.1 269.4 213 268.5 211 262.6 217.7 255.2 216.1 251.1 218.4 237.5 224.4 237.1 222.6 242.6 224.7 250.1 228.9 250.7 239.1 260.9 232.1 259.8 228.1 278.3 Z" id="UT04"/>
<path d="M 620.2 303.3 618 310 613.5 304.7 616.7 301.5 620.2 303.3 Z" id="MO01"/>
<path d="M 618 310 616.8 313.4 613.3 311 609.2 313.4 608.7 318.5 597.7 319.1 596 303.6 613.5 304.7 618 310 Z" id="MO02"/>
<path d="M 618.7 301.4 620.2 303.3 616.7 301.5 613.5 304.7 596 303.6 597.7 319.1 608.7 318.5 609.2 313.4 613.3 311 613.4 320.6 611.5 321.5 611.9 329.7 595.1 329.3 592.9 323 585.6 324.3 576.3 324.4 572.8 319.7 573.8 314.6 565.6 308.5 565.6 301.7 582.3 301.6 582.9 298.9 591.7 298.6 598.6 296.3 601.7 302.7 609.9 300.8 618.7 301.4 Z" id="MO03"/>
<path d="M 537 341.4 536.7 316.6 536.7 305.4 542.8 305.6 542.1 299.4 547.3 296.9 560.1 295.2 563.1 291.3 576.8 294.6 582.8 294.6 582.9 298.9 582.3 301.6 565.6 301.7 565.6 308.5 573.8 314.6 572.8 319.7 576.3 324.4 585.6 324.3 585.9 334.2 581.8 337.5 573.6 337.6 573.9 343.4 566.3 343 566.3 339.5 555.9 339.5 555.9 343 547.2 341.6 537 341.4 Z" id="MO04"/>
<path d="M 536.6 299.6 536.7 297.9 542.1 299.4 542.8 305.6 536.7 305.4 536.6 299.6 Z" id="MO05"/>
<path d="M 523.4 277.6 517.7 269.4 515.3 263.5 522.2 263.6 536.3 263.6 560.5 262.9 580.1 261.7 588.3 261.1 594.9 266.2 592.8 270 595.9 282.2 608.3 293.1 609.9 300.8 601.7 302.7 598.6 296.3 591.7 298.6 582.9 298.9 582.8 294.6 576.8 294.6 563.1 291.3 560.1 295.2 547.3 296.9 542.1 299.4 536.7 297.9 533.9 297.6 527.2 288.7 531.1 281.6 523.4 277.6 Z" id="MO06"/>
<path d="M 537.3 362.4 537.1 350.2 537 341.4 547.2 341.6 555.9 343 555.9 339.5 566.3 339.5 566.3 343 573.9 343.4 569.8 347.7 572.6 354.1 572.7 361.5 562.8 361.8 537.3 362.4 Z" id="MO07"/>
<path d="M 641.5 346 640.6 356.2 637.1 358.2 635.8 358.3 634.7 358.4 635.2 363.8 631.8 370.6 619.4 371.5 624.7 364.5 623 359.1 604.3 360.2 572.7 361.5 572.6 354.1 569.8 347.7 573.9 343.4 573.6 337.6 581.8 337.5 585.9 334.2 585.6 324.3 592.9 323 595.1 329.3 611.9 329.7 611.5 321.5 613.4 320.6 613.3 311 616.8 313.4 616.4 316.8 617.4 318.6 633.3 329.6 635.5 336.5 633.8 339.3 638.6 346.1 641.5 346 Z" id="MO08"/>
<path d="M 566.7 162.7 580.8 171.3 581.9 174.5 589.6 179 593.2 184.3 594 190.8 554.4 192.4 520.6 192.9 502.9 192.9 502.9 184.5 530.5 184.4 532.6 178.1 531.6 169.7 546.3 169.5 544.9 174.7 555.5 175.5 555.4 171.3 560.3 171.2 565.8 166.9 566.7 162.7 Z" id="MN01"/>
<path d="M 565.9 159.2 566.7 162.7 565.8 166.9 560.3 171.2 555.4 171.3 555.5 175.5 544.9 174.7 546.3 169.5 549 165 553.1 160.9 558.6 159.4 558.9 158.7 565.9 159.2 Z" id="MN02"/>
<path d="M 558.6 159.4 553.1 160.9 548.9 159 548.8 154.9 552.8 150.3 557.3 153.1 555.1 157.7 558.6 159.4 Z" id="MN03"/>
<path d="M 565.4 154 565.9 159.2 558.9 158.7 557.9 153.1 561.4 153 565.4 154 Z" id="MN04"/>
<path d="M 558.9 158.7 558.6 159.4 555.1 157.7 557.3 153.1 557.9 153.1 558.9 158.7 Z" id="MN05"/>
<path d="M 553.1 160.9 549 165 544.8 163.2 544.7 156.9 540.5 157 540.2 146.2 536.1 144.6 541 139.6 548.4 136.6 548.6 142.9 552.9 146.2 561.2 146.1 561.4 153 557.9 153.1 557.3 153.1 552.8 150.3 548.8 154.9 548.9 159 553.1 160.9 Z" id="MN06"/>
<path d="M 501.3 134.3 500.8 124.8 497.5 117 497.9 111.2 496.9 94.6 492.2 81.3 493 68.3 491.1 60.9 521.7 61 525.4 62.9 525.4 67.8 521.4 71.9 517.2 72 518.1 96.8 509.7 96.8 509.7 109.3 533 109.1 530.9 113.3 531.1 123.1 538 128.7 547.4 128.5 548.4 136.6 541 139.6 536.1 144.6 540.2 146.2 540.5 157 544.7 156.9 544.8 163.2 549 165 546.3 169.5 531.6 169.7 532.6 178.1 530.5 184.4 502.9 184.5 503.1 149.5 496.3 142.1 501.3 134.3 Z" id="MN07"/>
<path d="M 576.9 114.4 572.4 115.5 572.9 129.7 566 134.4 563.5 138.6 567.5 145.1 565.4 154 561.4 153 561.2 146.1 552.9 146.2 548.6 142.9 548.4 136.6 547.4 128.5 538 128.7 531.1 123.1 530.9 113.3 533 109.1 509.7 109.3 509.7 96.8 518.1 96.8 517.2 72 521.4 71.9 525.4 67.8 525.4 62.9 521.7 61 524.4 61 524.3 51.8 529.5 53.9 533.4 67.5 545.5 69.4 546.4 72.1 553.5 69.3 559.4 69.2 570.9 75.5 580.3 78.5 585.1 81.9 594.4 76.9 595.9 80.2 606.1 79.2 611.9 84.1 600.1 89.4 594.9 93.1 580.6 108.6 576.9 114.4 Z" id="MN08"/>
<path d="M 644.4 132.4 642 128.6 631.8 127.7 626.4 125.2 608.9 121.6 603.6 116.4 609.9 113.4 613.6 109.7 619.8 108.7 639 92.5 645.1 93.8 638.6 99.1 635.6 104.5 648.6 106.6 655.3 114.3 660.8 113 666.7 115.2 674.3 108.1 685.2 106.7 692.9 103.7 692.7 109.9 697.6 110.8 708.3 108.3 708.7 116.1 713 120.6 706.9 121.7 700.6 120.1 694.9 121.9 687.6 120.4 684.1 124.1 675.1 125.1 664.9 132 659.6 133.8 653.6 148.2 648.1 142.2 649.5 136.3 644.4 132.4 Z M 719.6 169.7 714.9 168.2 714.4 164.3 694.4 166.6 693.6 160.4 686.2 159 678.1 159.8 677.6 155.3 679.9 150.2 686.8 147.8 691.3 148.4 690.8 140.2 695.9 135.6 694.2 132.6 699.4 126.6 709.1 129.2 712.2 132.3 721.4 134.3 727.9 149.1 728.1 158.2 724.8 164.3 719.6 169.7 Z" fill-rule="evenodd" id="MI01"/>
<path d="M 678.1 159.8 686.2 159 693.6 160.4 694.4 166.6 714.4 164.3 714.9 168.2 715.4 172.3 710.2 175.4 712.9 181.4 714 189.5 705.8 190.7 706.8 199 703.7 207.9 695.4 208.9 694.4 200.5 696.2 198.2 695.5 191.9 687.2 192.8 679 190.1 675 181.9 676.3 176 674.4 171.3 677.9 164 678.1 159.8 Z" id="MI02"/>
<path d="M 679 190.1 687.2 192.8 695.5 191.9 696.2 198.2 694.4 200.5 689.9 197.5 682.2 197.6 679 190.1 Z" id="MI03"/>
<path d="M 694.4 200.5 695.4 208.9 703.7 207.9 703.8 207.9 704.4 212.1 692.5 217.7 678.9 219.9 682.9 208.5 682.2 197.6 689.9 197.5 694.4 200.5 Z" id="MI04"/>
<path d="M 734.3 220.9 710.4 224.8 710.3 223.3 695.1 225 676.6 226.9 674.6 227.1 678.9 219.9 692.5 217.7 704.4 212.1 703.8 207.9 720.2 205.8 721.3 214.3 735.9 211.9 737.6 212.9 734.3 220.9 Z" id="MI05"/>
<path d="M 737.6 212.9 735.9 211.9 721.3 214.3 720.2 205.8 730.1 202.9 732.4 203.9 733 207.5 738.5 208.9 737.6 212.9 Z" id="MI06"/>
<path d="M 703.7 207.9 706.8 199 705.8 190.7 714 189.5 721.6 188.4 722.6 196 726.9 196.2 729.7 200.8 730.1 202.9 720.2 205.8 703.8 207.9 703.7 207.9 Z" id="MI07"/>
<path d="M 714.9 168.2 719.6 169.7 720.2 175.3 724.2 177 725.2 184.7 729.4 185.2 730.7 193.5 726.9 196.2 722.6 196 721.6 188.4 714 189.5 712.9 181.4 710.2 175.4 715.4 172.3 714.9 168.2 Z" id="MI08"/>
<path d="M 729.7 200.8 726.9 196.2 730.7 193.5 729.4 185.2 725.2 184.7 724.2 177 727.3 173.9 730.4 166.7 735.8 163.7 739.4 165.2 742.2 169.9 745.7 182.9 748.4 188.6 747.7 197.7 742.6 197.8 735.4 196.9 729.7 200.8 Z" id="MI09"/>
<path d="M 735.4 196.9 742.6 197.8 742.2 202.3 738.5 202.9 735.4 196.9 Z" id="MI10"/>
<path d="M 732.4 203.9 730.1 202.9 729.7 200.8 735.4 196.9 738.5 202.9 737.3 203.1 732.4 203.9 Z" id="MI11"/>
<path d="M 733 207.5 732.4 203.9 737.3 203.1 733 207.5 Z" id="MI12"/>
<path d="M 738.5 208.9 733 207.5 737.3 203.1 738.5 202.9 742.2 202.3 738.5 208.9 Z" id="MI13"/>
<path d="M 255.5 136.5 253.8 146.7 253.4 148.9 249 141.5 244.7 145.5 220.3 144 219.8 137 214.5 132.7 215.4 128.2 211.5 118.9 211.9 114.2 208.7 112.2 203.7 115.5 199.1 112.8 200.1 107.7 203.2 106 203.9 96.4 208.2 87.9 199.2 81.7 194.5 70.2 188.9 64.6 190.5 61.3 186.7 51.1 191.8 27.2 228.8 34.8 252.5 39 250.5 51.2 251.6 56.9 247.8 59.2 236 57.1 232 67.7 231 79.3 235.3 80.1 233.9 88.2 240.9 93.8 240 99.4 234.6 103.1 236.2 113 247.6 115.8 253.1 111.9 255 107.5 264.4 108.9 261.9 123.2 257 128.2 255.5 136.5 Z" id="MT01"/>
<path d="M 373.7 151 372.2 150.9 341.9 148.1 303 143.4 266.9 138.3 262.2 137.8 255.5 136.5 257 128.2 261.9 123.2 264.4 108.9 255 107.5 253.1 111.9 247.6 115.8 236.2 113 234.6 103.1 240 99.4 240.9 93.8 233.9 88.2 235.3 80.1 231 79.3 232 67.7 236 57.1 247.8 59.2 251.6 56.9 250.5 51.2 252.5 39 271.3 42.1 303 46.8 328.2 50.1 350 52.5 381.9 55.6 378.5 96.7 375.9 127 375.8 128.3 375.7 130.1 373.9 151 373.7 151 Z" id="MT02"/>
<path d="M 634 394.9 647.8 393.9 663.4 392.7 665.6 395 664.8 428.1 664.7 434 657.4 434.6 656.8 427.9 651.2 430 644.8 439.9 640.4 431.7 639.1 414.1 635 414.3 634.4 405.6 624.9 406.2 622.5 398.9 625.3 395.5 632.9 395 634 394.9 Z" id="MS01"/>
<path d="M 623 492.2 600.6 493.4 600.2 487 603.6 483.7 605.6 472.8 612.2 465.2 612.3 460.2 608.6 453.4 607.9 444.7 608.6 443.2 608 441.6 609.9 437.8 608.1 437.6 609.5 434.1 606.2 429 610.3 420.5 612.3 418.2 610.8 417.7 613.4 415.9 611.6 414.8 614.5 412.3 615.6 412.4 618.1 406.2 619.2 400.7 622.5 398.9 624.9 406.2 634.4 405.6 635 414.3 639.1 414.1 640.4 431.7 644.8 439.9 645.7 452.7 625.7 454.7 627.2 458.2 627.7 467.1 630.3 471.1 627.5 475.1 620.4 477.6 622.5 483.8 623 492.2 Z" id="MS02"/>
<path d="M 639.9 491.1 623 492.2 622.5 483.8 620.4 477.6 627.5 475.1 630.3 471.1 627.7 467.1 627.2 458.2 625.7 454.7 645.7 452.7 644.8 439.9 651.2 430 656.8 427.9 657.4 434.6 664.7 434 664 467.8 654.6 471.2 645.3 471.6 645.9 480.3 640.7 480.7 639.9 491.1 Z" id="MS03"/>
<path d="M 645.4 510.5 638.1 499.4 639.9 491.1 640.7 480.7 645.9 480.3 645.3 471.6 654.6 471.2 664 467.8 664.5 472.5 667.3 494.3 668.5 504.3 654.4 505.4 645.4 510.5 Z" id="MS04"/>
</g>
</svg>